<svg style="position: absolute; width: 0; height: 0; overflow: hidden;" version="1.1" xmlns="http://www.w3.org/2000/svg">
<defs>
<symbol id="olymp-stats-arrow" viewBox="0 0 32 32">
<title>stats-arrow</title>
<path d="M14.222 3.609h3.556v-3.534h-3.556v3.534zM14.222 31.927h3.556v-24.74h-3.556v24.74zM21.918 2.363l-2.514 2.382 10.055 9.527 2.514-2.382-10.055-9.527zM0.027 11.89l2.516 2.382 10.055-9.527-2.514-2.382-10.057 9.527z"></path>
</symbol>
<symbol id="olymp-little-delete" viewBox="0 0 32 32">
<title>little-delete</title>
<path d="M32 4.149l-3.973-3.979-11.936 11.941-11.941-11.941-3.979 3.979 11.941 11.936-11.941 11.936 3.979 3.979 11.941-11.936 11.936 11.936 3.973-3.979-11.936-11.936z"></path>
</symbol>
<symbol id="olymp-trophy-icon" viewBox="0 0 36 32">
<title>trophy-icon</title>
<path d="M24 4v10.4c0 3.088-2.692 5.6-6 5.6s-6-2.512-6-5.6v-10.4h12zM28 0h-20v14.4c0 5.302 4.476 9.6 10 9.6s10-4.298 10-9.6v-14.4z"></path>
<path d="M16 22h4v10h-4v-10z"></path>
<path d="M12 28h12v4h-12v-4z"></path>
<path d="M12.014 18h-2c-7.506 0-9.782-7.8-9.936-11.924l-0.078-2.076h12.014v14zM4.356 8c0.402 1.914 1.364 4.598 3.658 5.602v-5.602h-3.658z"></path>
<path d="M23.986 4h12.014l-0.078 2.076c-0.154 4.124-2.43 11.924-9.936 11.924h-2v-14zM27.986 8v5.602c2.294-1.004 3.256-3.688 3.658-5.602h-3.658z"></path>
</symbol>
<symbol id="olymp-block-from-chat" viewBox="0 0 35 32">
<title>block-from-chat</title>
<path d="M32 0h-28.8c-1.768 0-3.2 1.434-3.2 3.2v16c0 1.766 1.434 3.2 3.2 3.2 0 0 0.6 0 1.6 0v-3.2h-1.6v-16h28.8v19.2c1.766 0 3.2-1.434 3.2-3.2v-16c0-1.766-1.434-3.2-3.2-3.2zM20.8 22.4h1.6v-3.2h-1.6v3.2zM25.6 22.4h3.2v-3.2h-3.2v3.2z"></path>
<path d="M17.6 19.2l-9.6 6.626v-6.626h-3.2v12.8l12.8-9.6h3.2v-3.2z"></path>
<path d="M22.125 8.938l-2.262-2.262-2.262 2.262-2.262-2.262-2.264 2.262 2.262 2.262-2.262 2.264 2.264 2.262 2.262-2.262 2.262 2.262 2.262-2.262-2.262-2.264z"></path>
</symbol>
<symbol id="olymp-weather-refresh-icon" viewBox="0 0 30 32">
<title>weather-refresh-icon</title>
<path d="M14.769 32c-8.155 0-14.769-6.614-14.769-14.769 0-4.177 1.762-7.909 4.561-10.582l-3.414-3.412 12.18-1.794-1.794 12.18-3.348-3.35c-0.475 0.468-0.99 0.906-1.371 1.465v0c-1.115 1.585-1.89 3.407-1.89 5.494 0 5.438 4.409 9.846 9.846 9.846s9.846-4.409 9.846-9.846c0-2.4-0.891-4.566-2.316-6.274l3.764-3.136c2.139 2.56 3.476 5.814 3.476 9.41 0 8.155-6.614 14.769-14.769 14.769z"></path>
</symbol>
<symbol id="olymp-popup-left-arrow" viewBox="0 0 18 32">
<title>popup-left-arrow</title>
<path d="M0 14.222v3.556h3.556v-3.556h-3.556zM6.805 18.514l-2.514 2.514 10.057 10.055 2.514-2.514-10.057-10.055zM14.348 0.914l-10.057 10.057 2.514 2.514 10.057-10.055-2.514-2.516z"></path>
</symbol>
<symbol id="olymp-popup-right-arrow" viewBox="0 0 18 32">
<title>popup-right-arrow</title>
<path d="M14.222 14.222v3.556h3.556v-3.556h-3.556zM0.916 28.569l2.514 2.514 10.057-10.055-2.514-2.514-10.057 10.055zM0.916 3.429l10.057 10.055 2.514-2.514-10.057-10.057-2.514 2.516z"></path>
</symbol>
<symbol id="olymp-register-icon" viewBox="0 0 37 32">
<title>register-icon</title>
<path d="M16 3.213c3.24 0 6.192 1.214 8.446 3.2h4.346c-2.917-3.888-7.549-6.413-12.781-6.413-7.165 0-13.227 4.714-15.259 11.213h3.387c1.899-4.69 6.491-8 11.861-8zM16 28.813c-5.37 0-9.962-3.31-11.861-8h-3.378c2.040 6.485 8.094 11.187 15.25 11.187 5.222 0 9.842-2.515 12.762-6.387h-4.325c-2.256 1.986-5.208 3.2-8.448 3.2zM32 14.413v-4.8h-3.2v4.8h-4.8v3.2h4.8v4.8h3.2v-4.8h4.8v-3.2h-4.8zM3.2 14.413h-3.2v3.2h3.2v-3.2z"></path>
</symbol>
<symbol id="olymp-login-icon" viewBox="0 0 29 32">
<title>login-icon</title>
<path d="M0 17.443c0 6.515 4.287 12.026 10.195 13.875v-3.081c-4.263-1.728-7.273-5.901-7.273-10.783 0-4.883 3.009-9.056 7.273-10.784v-3.1c-5.908 1.849-10.195 7.36-10.195 13.872zM18.922 3.578v3.092c4.263 1.728 7.273 5.901 7.273 10.783s-3.009 9.056-7.273 10.783v3.071c5.894-1.855 10.169-7.357 10.169-13.863 0-6.503-4.273-12.007-10.169-13.865zM13.104 14.545h2.909v-14.545h-2.909v14.545zM13.104 32h2.909v-2.909h-2.909v2.909z"></path>
</symbol>
<symbol id="olymp-three-dots-icon" viewBox="0 0 128 32">
<title>three-dots-icon</title>
<path d="M112-0.008c-8.84 0-16 7.16-16 16 0 8.832 7.16 15.992 16 15.992s16-7.16 16-15.992c0-8.84-7.16-16-16-16zM64-0.008c-8.84 0-16 7.16-16 16 0 8.832 7.16 15.992 16 15.992s16-7.16 16-15.992c0-8.84-7.16-16-16-16zM16-0.008c-8.832 0-16 7.16-16 16s7.168 15.992 16 15.992 16-7.16 16-15.992c0-8.84-7.16-16-16-16z"></path>
</symbol>
<symbol id="olymp-small-pin-icon" viewBox="0 0 25 32">
<title>small-pin-icon</title>
<path d="M12.444 7.111c-2.946 0-5.333 2.389-5.333 5.333 0 2.946 2.388 5.333 5.333 5.333s5.333-2.386 5.333-5.333c0-2.944-2.388-5.333-5.333-5.333zM12.444 14.222c-0.981 0-1.778-0.796-1.778-1.778s0.796-1.778 1.778-1.778 1.778 0.796 1.778 1.778-0.796 1.778-1.778 1.778z"></path>
<path d="M12.444 0c-4.823 0-8.996 2.891-11.061 7.111h4.194c1.632-2.151 4.087-3.556 6.868-3.556 4.901 0 8.889 4.277 8.889 9.534 0 7.237-6.46 13.865-8.876 15.204-1.838-1.054-6.148-5.36-8.011-10.516h-3.73c2.263 7.817 9.374 14.222 11.728 14.222 2.811 0 12.444-8.951 12.444-18.91 0-7.228-5.573-13.090-12.444-13.090z"></path>
<path d="M0 10.667h3.556v3.556h-3.556v-3.556z"></path>
</symbol>
<symbol id="olymp-small-calendar-icon" viewBox="0 0 25 32">
<title>small-calendar-icon</title>
<path d="M21.333 3.556h-1.778v-1.778c0-0.983-0.796-1.778-1.778-1.778-0.983 0-1.778 0.795-1.778 1.778v1.778h-7.111v-1.778c0-0.983-0.796-1.778-1.778-1.778-0.983 0-1.778 0.795-1.778 1.778v1.778h-1.778c-1.963 0-3.556 1.415-3.556 3.159v22.123c0 1.748 1.593 3.163 3.556 3.163h14.222v-3.556h-14.222v-21.333h1.778v1.778c0 0.981 0.795 1.778 1.778 1.778 0.981 0 1.778-0.796 1.778-1.778v-1.778h7.111v1.778c0 0.981 0.795 1.778 1.778 1.778 0.981 0 1.778-0.796 1.778-1.778v-1.778h1.778v17.778h3.556v-18.174c0-1.744-1.593-3.159-3.556-3.159zM21.333 32h3.556v-3.556h-3.556v3.556zM7.111 17.776h10.667v-3.556h-10.667v3.556zM7.111 24.887h3.556v-3.556h-3.556v3.556zM14.222 24.887h3.556v-3.556h-3.556v3.556z"></path>
</symbol>
<symbol id="olymp-share-post-icon" viewBox="0 0 37 32">
<title>share-post-icon</title>
<path d="M11.691 16.788v3.046h6.085v3.048h-6.085v3.072l-6.095-4.584 6.095-4.582zM14.738 10.683l-14.216 10.686 14.216 10.688v-6.129h6.085v-9.144h-6.085v-6.101z"></path>
<path d="M16.262 6.095h3.048v3.048h-3.048v-3.048z"></path>
<path d="M33.33 8.25l-10.973-8.25v9.149h3.048v-3.046l6.095 4.582-6.095 4.582v-3.072h-9.134v3.048h6.086v6.129l14.214-10.686z"></path>
</symbol>
<symbol id="olymp-like-post-icon" viewBox="0 0 37 32">
<title>like-post-icon</title>
<path d="M33.449 2.994c-2.066-2.009-4.377-3.006-7.191-3.006-2.69 0-5.691 2.089-7.934 4.306-2.311-2.217-5.221-4.295-8.002-4.295-2.722 0-5.122 0.793-7.12 2.736-4.165 4.043-4.165 10.601 0 14.649 1.189 1.154 12.729 13.655 12.729 13.655 0.656 0.64 1.52 0.96 2.379 0.96 0.862 0 1.721-0.32 2.382-0.96l1.726-1.815-3.237-3.234-0.857 0.905c-3.122-3.381-10.862-11.744-11.936-12.789-1.122-1.090-1.739-2.528-1.737-4.050 0-1.52 0.617-2.955 1.739-4.046 1.024-0.997 2.238-1.44 3.931-1.44 0.777 0 2.512 0.791 4.839 3.022l3.214 3.081 3.163-3.131c2.215-2.19 4.037-2.985 4.718-2.985 1.573 0 2.77 0.512 4.007 1.714 1.12 1.088 1.737 2.523 1.737 4.046s-0.617 2.958-1.669 3.982c-0.13 0.121-0.135 0.123-2.037 2.123l-0.187 0.199 3.23 3.237 0.046-0.048 0.242-0.258c0 0 1.79-1.881 1.824-1.911 4.162-4.043 4.162-10.603 0-14.647z"></path>
<path d="M22.889 20.578h4.571v4.571h-4.571v-4.571z"></path>
</symbol>
<symbol id="olymp-dropdown-arrow-icon" viewBox="0 0 48 32">
<title>dropdown-arrow-icon</title>
<path d="M41.888 0.104l-17.952 19.064-17.952-19.064-5.984 6.352 23.936 25.44 23.936-25.44z"></path>
</symbol>
<symbol id="olymp-accordion-open-icon" viewBox="0 0 32 32">
<title>accordion-open-icon</title>
<path d="M32 12.8v6.4h-32v-6.4h32z"></path>
<path d="M19.2 32h-6.4v-32h6.4v32z"></path>
</symbol>
<symbol id="olymp-comments-post-icon" viewBox="0 0 36 32">
<title>comments-post-icon</title>
<path d="M32 0h-28c-2.21 0-4 1.792-4 4v18c0 2.208 1.792 4 4 4 0 0 0.75 0 2 0v-4h-2v-18h28v22c2.208 0 4-1.792 4-4v-18c0-2.208-1.792-4-4-4zM18 26h2v-4h-2v4zM24 26h4v-4h-4v4zM8 12h20v-4h-20v4zM8 18h12v-4h-12v4z"></path>
<path d="M18 22l-8 4.282v-4.282h-4v10l12-6v-4z"></path>
</symbol>
<symbol id="olymp-accordion-close-icon" viewBox="0 0 32 32">
<title>accordion-close-icon</title>
<path d="M32 12.8v6.4h-32v-6.4h32z"></path>
</symbol>
<symbol id="olymp-play-icon" viewBox="0 0 28 32">
<title>play-icon</title>
<path d="M24.71 10.664l-15.614-9.574c-1.146-0.698-2.312-1.048-3.478-1.048-2.792 0-5.618 2.188-5.618 6.368v5.59h4c0-4.784 0-5.592 0-5.592 0-1.498 0.628-2.368 1.618-2.368 0.408 0 0.876 0.148 1.388 0.458l15.63 9.584c1.758 1.066 1.848 2.812 0.088 3.878l-15.718 9.58c-0.512 0.314-0.982 0.46-1.39 0.46-0.988 0-1.616-0.868-1.616-2.364 0 0 0-0.6 0-1.586 0-0.012 0-0.036 0-0.048h-4v1.634c0 4.178 2.826 6.364 5.616 6.364 1.166 0 2.334-0.35 3.47-1.042l15.72-9.58c2.026-1.23 3.194-3.164 3.194-5.302 0.002-2.172-1.198-4.144-3.29-5.412z"></path>
<path d="M0 16h4v4h-4v-4z"></path>
</symbol>
<symbol id="olymp-remove-playlist-icon" viewBox="0 0 38 32">
<title>remove-playlist-icon</title>
<path d="M8.813 19.202c0.442 0 0.8 0.358 0.8 0.8v8.002c0 0.44-0.358 0.797-0.8 0.797s-0.8-0.357-0.8-0.797v-8.002c0-0.442 0.358-0.8 0.8-0.8zM8.813 16.002c-2.206 0-4 1.795-4 4v8.002c0 2.203 1.794 3.997 4 3.997s4-1.794 4-3.997v-8.002c0-2.205-1.794-4-4-4v0z"></path>
<path d="M6.275 27.138c-1.694-0.067-3.050-1.451-3.050-3.163s1.357-3.096 3.050-3.163v-3.2c-3.475 0.070-6.275 2.896-6.275 6.389s2.8 6.318 6.275 6.387v-3.25z"></path>
<path d="M23.186 19.202c0.442 0 0.8 0.358 0.8 0.8v8.002c0 0.44-0.358 0.797-0.8 0.797s-0.8-0.357-0.8-0.797v-8.002c0-0.442 0.358-0.8 0.8-0.8zM23.186 16.002c-2.206 0-4 1.795-4 4v8.002c0 2.203 1.794 3.997 4 3.997 2.205 0 3.998-1.794 3.998-3.997v-8.002c0-2.205-1.794-4-3.998-4v0z"></path>
<path d="M25.725 27.138c1.694-0.067 3.050-1.451 3.050-3.163s-1.357-3.096-3.050-3.163v-3.2c3.475 0.070 6.275 2.896 6.275 6.389s-2.8 6.318-6.275 6.387v-3.25z"></path>
<path d="M3.963 11.683c-0.485 1.35-0.763 2.8-0.763 4.317v4.218h3.2v-4.218c0-0.848 0.122-1.666 0.328-2.448l-2.765-1.869z"></path>
<path d="M16 3.2c-1.518 0-2.968 0.278-4.32 0.763l1.862 2.766c0.787-0.208 1.606-0.33 2.458-0.33 5.294 0 9.6 4.306 9.6 9.6v4.218h3.2v-4.218c0-7.069-5.731-12.8-12.8-12.8z"></path>
<path d="M6.434 6.366h3.2v3.2h-3.2v-3.2z"></path>
<path d="M28.8 0h9.6v3.2h-9.6v-3.2z"></path>
</symbol>
<symbol id="olymp-save-playlist-icon" viewBox="0 0 35 32">
<title>save-playlist-icon</title>
<path d="M8.012 20.365c0.401 0 0.727 0.326 0.727 0.727v7.274c0 0.4-0.326 0.724-0.727 0.724s-0.727-0.324-0.727-0.724v-7.274c0-0.401 0.326-0.727 0.727-0.727zM8.012 17.456c-2.006 0-3.636 1.632-3.636 3.636v7.274c0 2.003 1.631 3.633 3.636 3.633s3.636-1.631 3.636-3.633v-7.274c0-2.004-1.631-3.636-3.636-3.636v0z"></path>
<path d="M5.705 27.58c-1.54-0.061-2.772-1.319-2.772-2.876s1.233-2.815 2.772-2.876v-2.909c-3.159 0.064-5.705 2.633-5.705 5.808s2.545 5.744 5.705 5.807v-2.954z"></path>
<path d="M21.078 20.365c0.401 0 0.727 0.326 0.727 0.727v7.274c0 0.4-0.326 0.724-0.727 0.724s-0.727-0.324-0.727-0.724v-7.274c0-0.401 0.326-0.727 0.727-0.727zM21.078 17.456c-2.006 0-3.636 1.632-3.636 3.636v7.274c0 2.003 1.631 3.633 3.636 3.633 2.004 0 3.635-1.631 3.635-3.633v-7.274c0-2.004-1.631-3.636-3.635-3.636v0z"></path>
<path d="M23.386 27.58c1.54-0.061 2.772-1.319 2.772-2.876s-1.233-2.815-2.772-2.876v-2.909c3.159 0.064 5.705 2.633 5.705 5.808s-2.545 5.744-5.705 5.807v-2.954z"></path>
<path d="M3.603 13.53c-0.441 1.228-0.694 2.545-0.694 3.924v3.834h2.909v-3.834c0-0.771 0.111-1.514 0.298-2.225l-2.513-1.699z"></path>
<path d="M14.545 5.818c-1.38 0-2.698 0.253-3.927 0.694l1.693 2.515c0.716-0.189 1.46-0.3 2.234-0.3 4.813 0 8.727 3.914 8.727 8.727v3.834h2.909v-3.834c0-6.426-5.21-11.636-11.636-11.636z"></path>
<path d="M5.849 8.697h2.909v2.909h-2.909v-2.909z"></path>
<path d="M29.091 0h2.909v8.727h-2.909v-8.727z"></path>
<path d="M26.182 2.909h8.727v2.909h-8.727v-2.909z"></path>
</symbol>
<symbol id="olymp-share-icon" viewBox="0 0 40 32">
<title>share-icon</title>
<path d="M11.168 16.788v3.046h9.132v3.048h-9.132v3.072l-6.095-4.584 6.095-4.582zM14.216 10.683l-14.216 10.685 14.216 10.688v-6.129h9.132v-9.144h-9.132v-6.1z"></path>
<path d="M15.739 6.095h3.048v3.048h-3.048v-3.048z"></path>
<path d="M35.854 8.25l-10.973-8.25v6.1h-3.048v3.049h6.095v-3.046l6.095 4.582-6.095 4.582v-3.072h-12.18v3.048h9.132v6.129l14.214-10.686z"></path>
</symbol>
<symbol id="olymp-heart-icon" viewBox="0 0 36 32">
<title>heart-icon</title>
<path d="M23.111 21.333h3.556v3.556h-3.556v-3.556z"></path>
<path d="M32.512 2.997c-2.014-2.011-4.263-3.006-7.006-3.006-2.62 0-5.545 2.089-7.728 4.304-2.254-2.217-5.086-4.295-7.797-4.295-2.652 0-4.99 0.793-6.937 2.738-4.057 4.043-4.057 10.599 0 14.647 1.157 1.157 12.402 13.657 12.402 13.657 0.64 0.638 1.481 0.958 2.32 0.958s1.678-0.32 2.318-0.958l1.863-2.012-2.523-2.507-1.655 1.787c-2.078-2.311-11.095-12.324-12.213-13.442-1.291-1.285-2-2.994-2-4.811 0-1.813 0.709-3.518 2-4.804 1.177-1.175 2.54-1.698 4.425-1.698 0.464 0 2.215 0.236 5.303 3.273l2.533 2.492 2.492-2.532c2.208-2.242 4.201-3.244 5.196-3.244 1.769 0 3.113 0.588 4.496 1.97 1.289 1.284 1.998 2.99 1.998 4.804 0 1.815-0.709 3.522-1.966 4.775-0.087 0.085-0.098 0.094-1.9 2.041l-0.156 0.167 2.523 2.51 0.24-0.26c0 0 1.742-1.881 1.774-1.911 4.055-4.043 4.055-10.603-0.002-14.644z"></path>
</symbol>
<symbol id="olymp-magnifying-glass-icon" viewBox="0 0 34 32">
<title>magnifying-glass-icon</title>
<path d="M20.809 3.57c-4.76-4.76-12.478-4.76-17.239 0s-4.76 12.48 0 17.239c4.76 4.76 12.48 4.76 17.239 0 4.76-4.759 4.76-12.478 0-17.239zM18.654 18.654c-3.57 3.57-9.361 3.57-12.93 0-3.57-3.57-3.57-9.359 0-12.93s9.361-3.57 12.93 0c3.57 3.569 3.57 9.359 0 12.93z"></path>
<path d="M24.022 21.907l2.154-2.156 2.157 2.155-2.154 2.156-2.157-2.155z"></path>
<path d="M28.34 28.364c-0.596 0.597-1.559 0.597-2.155 0l-6.464-6.464-0.834-0.852 4.3-4.3-1.312-1.314-6.466 6.466 8.62 8.619c1.783 1.783 4.683 1.783 6.464 0 1.783-1.781 1.783-4.681 0-6.464l-2.155 2.155c0.596 0.596 0.594 1.562 0 2.155z"></path>
</symbol>
<symbol id="olymp-cupcake-icon" viewBox="0 0 27 32">
<title>cupcake-icon</title>
<path d="M5.349 32h3.984v-2.667h-1.671l-0.933-6.541 12.959-0.063 0.312-0.063h-15.979z"></path>
<path d="M20 22.667l-0.963 6.667h-1.704v2.667h4.016l1.339-9.333z"></path>
<path d="M25 12.908c-0.921-2.695-3.583-4.743-7.667-4.891v2.673c2.639 0.121 4.513 1.237 5.143 3.080 0.157 0.457 0.435 0.864 0.805 1.176 0.451 0.379 0.719 1.028 0.719 1.737 0 0.649-0.232 1.251-0.635 1.648-0.377 0.372-0.636 0.849-0.74 1.368-0.195 0.957-1.133 1.651-2.203 1.652-0.375-0.047-1.288-0.669-1.587-0.873-0.447-0.305-0.972-0.464-1.503-0.464-0.173 0-0.347 0.017-0.519 0.051-0.7 0.139-1.317 0.553-1.709 1.151-0.605 0.919-1.267 1.468-1.772 1.468-0.596 0-1.305-0.757-1.771-1.467-0.392-0.597-1.008-1.013-1.709-1.152-0.173-0.033-0.347-0.049-0.52-0.049-0.531 0-1.055 0.159-1.5 0.463-0.301 0.204-1.216 0.828-1.557 0.873-1.101 0-2.040-0.695-2.233-1.651-0.105-0.52-0.363-0.996-0.74-1.368-0.405-0.4-0.636-1-0.636-1.649 0-0.709 0.268-1.359 0.717-1.736 0.371-0.312 0.649-0.719 0.805-1.177 0.588-1.716 2.545-2.885 5.144-3.079v-2.675c-3.924 0.225-6.751 2.212-7.667 4.891-1.005 0.847-1.667 2.217-1.667 3.776 0 1.428 0.561 2.691 1.427 3.545 0.436 2.157 2.437 3.789 4.848 3.789 1.073 0 2.248-0.784 3.059-1.336 0.871 1.327 2.227 2.669 4 2.669s3.128-1.343 4-2.669c0.809 0.552 1.984 1.336 3.059 1.336 2.411 0 4.412-1.632 4.848-3.789 0.865-0.856 1.427-2.117 1.427-3.545 0-1.559-0.661-2.929-1.667-3.776z"></path>
<path d="M12 29.333h2.667v2.667h-2.667v-2.667z"></path>
<path d="M12 13.332h2.667v-8h-2.667v8zM13.333 0c-0.737 0-1.333 0.596-1.333 1.332v1.333c0 0.736 0.596 1.333 1.333 1.333s1.333-0.597 1.333-1.333v-1.333c0-0.736-0.596-1.332-1.333-1.332z"></path>
</symbol>
<symbol id="olymp-weather-icon" viewBox="0 0 38 32">
<title>weather-icon</title>
<path d="M18.909 29.091h2.909v2.909h-2.909v-2.909z"></path>
<path d="M28.236 21.393c0-3.446-3.037-6.243-6.828-6.353-1.809-2.070-4.609-3.405-7.76-3.405-5.252 0-9.536 3.697-9.852 8.362-2.256 1.062-3.796 3.185-3.796 5.638 0 3.516 3.159 6.365 7.059 6.365h8.941v-2.909h-8.941c-2.288 0-4.15-1.549-4.15-3.456 0-1.238 0.815-2.39 2.124-3.005l1.548-0.729 0.116-1.708c0.214-3.168 3.267-5.649 6.95-5.649 2.201 0 4.231 0.879 5.571 2.41l0.836 0.956 1.27 0.036c2.208 0.065 4.004 1.61 4.004 3.446v2.016l1.887 0.707c1.139 0.431 1.876 1.36 1.876 2.368 0 0.644 0 2.608-3.209 2.608h-1.155v2.909h1.155c3.379 0 6.118-1.789 6.118-5.517 0-2.294-1.553-4.26-3.764-5.089z"></path>
<path d="M21.818 7.273c-4.016 0-7.363 2.727-8.38 6.419l2.561 0.855 0.179 0.087c0.615-2.551 2.899-4.452 5.639-4.452 3.213 0 5.818 2.607 5.818 5.818 0 1.686-0.729 3.193-1.875 4.257 0.522 0.682 1.168 1.529 1.756 2.304 1.841-1.603 3.028-3.932 3.028-6.561 0-4.819-3.908-8.727-8.727-8.727zM13.693 5.818l-2.057-2.058c-0.569-0.567-1.489-0.567-2.057 0-0.569 0.57-0.569 1.489 0 2.058l2.057 2.057c0.569 0.57 1.488 0.57 2.057 0 0.569-0.567 0.569-1.487 0-2.057zM21.818 5.818c0.804 0 1.455-0.652 1.455-1.455v-2.909c0-0.801-0.65-1.455-1.455-1.455s-1.455 0.653-1.455 1.456v2.909c0 0.801 0.65 1.453 1.455 1.453zM36.364 13.091h-2.909c-0.804 0-1.455 0.652-1.455 1.456s0.65 1.453 1.455 1.453h2.909c0.804 0 1.455-0.649 1.455-1.453s-0.65-1.456-1.455-1.456z"></path>
<path d="M33.277 3.223c0.57 0.569 0.567 1.487-0.001 2.057l-2.057 2.057c-0.569 0.569-1.487 0.57-2.057 0.001-0.569-0.57-0.569-1.489 0-2.060l2.057-2.057c0.569-0.569 1.488-0.567 2.058 0.001z"></path>
</symbol>
<symbol id="olymp-star-icon" viewBox="0 0 32 32">
<title>star-icon</title>
<path d="M24.029 27.192h3.2v3.2h-3.2v-3.2z"></path>
<path d="M31.88 11.91c-0.275-0.826-0.984-1.43-1.837-1.562l-8.309-1.28-3.611-7.763c-0.379-0.816-1.194-1.336-2.090-1.336-0.893 0-1.707 0.522-2.086 1.336l-3.613 7.763-8.309 1.28c-0.854 0.131-1.563 0.736-1.838 1.562-0.275 0.827-0.067 1.739 0.536 2.36l6.088 6.298-1.413 8.731c-0.142 0.88 0.226 1.762 0.947 2.277 0.397 0.28 0.862 0.424 1.328 0.424 0.384 0 0.766-0.098 1.115-0.291l7.243-4.037 4.768 2.656v-3.662l-4.768-2.658-7.184 4.005 1.378-8.517-1.114-1.154-4.922-5.090 8.323-1.282 0.723-1.552 2.798-6.014 3.52 7.566 8.326 1.283-6.038 6.243 0.733 4.53h3.242l-0.56-3.458 6.091-6.298c0.6-0.622 0.806-1.534 0.531-2.362z"></path>
</symbol>
<symbol id="olymp-headphones-icon" viewBox="0 0 36 32">
<title>headphones-icon</title>
<path d="M9.792 17.78c0.491 0 0.889 0.398 0.889 0.889v8.891c0 0.489-0.398 0.885-0.889 0.885s-0.889-0.396-0.889-0.885v-8.891c0-0.491 0.398-0.889 0.889-0.889zM9.792 14.224c-2.452 0-4.444 1.995-4.444 4.444v8.891c0 2.448 1.993 4.441 4.444 4.441s4.444-1.993 4.444-4.441v-8.891c0-2.45-1.993-4.444-4.444-4.444v0z"></path>
<path d="M6.972 26.597c-1.883-0.075-3.388-1.612-3.388-3.515s1.508-3.44 3.388-3.515v-3.556c-3.861 0.078-6.972 3.218-6.972 7.099s3.111 7.020 6.972 7.097v-3.611z"></path>
<path d="M25.762 17.78c0.491 0 0.889 0.398 0.889 0.889v8.891c0 0.489-0.398 0.885-0.889 0.885s-0.889-0.396-0.889-0.885v-8.891c0-0.491 0.398-0.889 0.889-0.889zM25.762 14.224c-2.452 0-4.444 1.995-4.444 4.444v8.891c0 2.448 1.993 4.441 4.444 4.441 2.45 0 4.443-1.993 4.443-4.441v-8.891c0-2.45-1.993-4.444-4.443-4.444v0z"></path>
<path d="M28.583 26.597c1.883-0.075 3.388-1.612 3.388-3.515s-1.508-3.44-3.388-3.515v-3.556c3.861 0.078 6.972 3.218 6.972 7.099s-3.111 7.020-6.972 7.097v-3.611z"></path>
<path d="M4.404 9.426c-0.539 1.5-0.848 3.111-0.848 4.796v4.686h3.556v-4.686c0-0.942 0.135-1.851 0.364-2.72l-3.072-2.076z"></path>
<path d="M17.778 0c-1.687 0-3.298 0.309-4.8 0.848l2.069 3.074c0.875-0.231 1.785-0.366 2.731-0.366 5.883 0 10.667 4.784 10.667 10.667v4.686h3.556v-4.686c0-7.854-6.368-14.222-14.222-14.222z"></path>
<path d="M7.148 3.518h3.556v3.556h-3.556v-3.556z"></path>
</symbol>
<symbol id="olymp-block-from-chat-icon" viewBox="0 0 35 32">
<title>block-from-chat-icon</title>
<path d="M32 0h-28.8c-1.768 0-3.2 1.434-3.2 3.2v16c0 1.766 1.434 3.2 3.2 3.2 0 0 0.6 0 1.6 0v-3.2h-1.6v-16h28.8v19.2c1.766 0 3.2-1.434 3.2-3.2v-16c0-1.766-1.434-3.2-3.2-3.2zM20.8 22.4h1.6v-3.2h-1.6v3.2zM25.6 22.4h3.2v-3.2h-3.2v3.2z"></path>
<path d="M17.6 19.2l-9.6 6.626v-6.626h-3.2v12.8l12.8-9.6h3.2v-3.2z"></path>
<path d="M22.125 8.938l-2.262-2.262-2.262 2.262-2.262-2.262-2.264 2.262 2.262 2.262-2.262 2.264 2.264 2.262 2.262-2.262 2.262 2.262 2.262-2.262-2.262-2.264z"></path>
</symbol>
<symbol id="olymp-add-to-conversation-icon" viewBox="0 0 35 32">
<title>add-to-conversation-icon</title>
<path d="M32 0h-28.8c-1.768 0-3.2 1.434-3.2 3.2v16c0 1.766 1.434 3.2 3.2 3.2 0 0 0.6 0 1.6 0v-3.2h-1.6v-16h28.8v19.2c1.766 0 3.2-1.434 3.2-3.2v-16c0-1.766-1.434-3.2-3.2-3.2zM20.8 22.4h1.6v-3.2h-1.6v3.2zM25.6 22.4h3.2v-3.2h-3.2v3.2z"></path>
<path d="M17.6 19.2l-9.6 6.626v-6.626h-3.2v12.8l12.8-9.6h3.2v-3.2z"></path>
<path d="M22.4 9.6h-3.2v-3.2h-3.2v3.2h-3.2v3.2h3.2v3.2h3.2v-3.2h3.2z"></path>
</symbol>
<symbol id="olymp-speech-balloon-icon" viewBox="0 0 35 32">
<title>speech-balloon-icon</title>
<path d="M32 0h-28.8c-1.768 0-3.2 1.434-3.2 3.2v16c0 1.766 1.434 3.2 3.2 3.2 0 0 0.6 0 1.6 0v-3.2h-1.6v-16h28.8v19.2c1.766 0 3.2-1.434 3.2-3.2v-16c0-1.766-1.434-3.2-3.2-3.2zM20.8 22.4h1.6v-3.2h-1.6v3.2zM25.6 22.4h3.2v-3.2h-3.2v3.2zM27.2 6.4h-20.8v3.2h20.8v-3.2zM6.4 16h12.8v-3.2h-12.8v3.2z"></path>
<path d="M17.6 19.2l-9.6 6.626v-6.626h-3.2v12.8l12.8-9.6h3.2v-3.2z"></path>
</symbol>
<symbol id="olymp-add-a-place-icon" viewBox="0 0 26 32">
<title>add-a-place-icon</title>
<path d="M13.091 0.001c-5.697 0-10.531 3.645-12.33 8.726h3.145c1.639-3.433 5.135-5.817 9.185-5.817 5.613 0 10.182 4.567 10.182 10.182 0 7.971-7.881 15.129-10.177 15.956-1.953-0.71-7.364-5.712-9.396-11.594h-3.040c2.268 7.964 9.923 14.545 12.432 14.545 2.957 0 13.091-8.95 13.091-18.908 0-7.231-5.86-13.091-13.091-13.091z"></path>
<path d="M13.091 7.316c-3.213 0-5.818 2.605-5.818 5.818 0 3.215 2.605 5.818 5.818 5.818s5.818-2.604 5.818-5.818c0-3.215-2.605-5.818-5.818-5.818zM13.091 16.045c-1.606 0-2.909-1.303-2.909-2.909s1.303-2.909 2.909-2.909 2.909 1.303 2.909 2.909-1.303 2.909-2.909 2.909z"></path>
<path d="M0 11.636h2.909v2.909h-2.909v-2.909z"></path>
</symbol>
<symbol id="olymp-chat---messages-icon" viewBox="0 0 40 32">
<title>chat---messages-icon</title>
<path d="M24.381 7.621h-21.333c-1.378 0-3.048 1.606-3.048 3.046v13.716c0 1.443 1.67 3.048 3.048 3.048v4.57l12.19-4.568v-3.051l-9.143 3.051v-3.051h-3.048v-13.714h21.333v16.763c1.378 0 3.048-1.605 3.048-3.048v-13.716c0-1.44-1.67-3.046-3.048-3.046zM18.286 27.432h3.048v-3.048h-3.048v3.048zM6.095 16.763h15.238v-3.046h-15.238v3.046zM6.095 21.336h9.143v-3.048h-9.143v3.048zM15.238 3.051h24.381c0-1.443-1.67-3.049-3.048-3.049h-21.333c-1.378 0-3.048 1.606-3.048 3.049v1.527h3.048v-1.527zM36.571 16.763l-4.571-0.002v3.051l-3.048-1.016v3.301l6.095 2.284v-4.568c0.779 0 1.524 0 1.524 0 1.378 0 3.048-1.606 3.048-3.049v-4.571h-3.048v4.571zM36.571 9.144h3.048v-3.048h-3.048v3.048z"></path>
</symbol>
<symbol id="olymp-check-icon" viewBox="0 0 37 32">
<title>check-icon</title>
<path d="M11.243 23.184l-7.424-7.421-3.712 3.712 11.136 11.136 18.557-18.557-3.712-3.715-14.845 14.845zM33.512 0.915l-3.712 3.712 3.712 3.712 3.712-3.712-3.712-3.712z"></path>
</symbol>
<symbol id="olymp-plus-icon" viewBox="0 0 32 32">
<title>plus-icon</title>
<path d="M18.286 0h-4.571v13.714h-13.714v4.571h13.714v13.714h4.571v-13.714h4.571v-4.571h-4.571v-13.714zM27.429 13.714v4.571h4.571v-4.571h-4.571z"></path>
</symbol>
<symbol id="olymp-albums-icon" viewBox="0 0 32 32">
<title>albums-icon</title>
<path d="M17.778 0v14.222h14.222v-14.222h-14.222zM28.444 10.667h-7.111v-7.111h7.111v7.111zM0 32h14.222v-14.222h-14.222v14.222zM3.556 21.333h7.111v7.111h-7.111v-7.111zM28.444 28.444h-7.111v-7.111h3.556v-3.556h-7.111v14.222h14.222v-7.111h-3.556v3.556zM0 14.222h14.222v-14.222h-14.222v14.222zM3.556 3.556h7.111v7.111h-7.111v-7.111zM28.444 21.333h3.556v-3.556h-3.556v3.556z"></path>
</symbol>
<symbol id="olymp-photos-icon" viewBox="0 0 29 32">
<title>photos-icon</title>
<path d="M6.4 22.402h16v-16h-16v16zM9.6 9.602h9.6v9.6h-9.6v-9.6zM25.6 32h3.2v-3.2h-3.2v3.2zM25.6 0h-22.4c-1.766 0-3.2 1.432-3.2 3.2v25.6c0 1.766 1.434 3.2 3.2 3.2h19.2v-3.2h-19.2v-25.6h22.4v22.398h3.2v-22.398c0-1.768-1.434-3.2-3.2-3.2z"></path>
</symbol>
<symbol id="olymp-day-calendar-icon" viewBox="0 0 26 32">
<title>day-calendar-icon</title>
<path d="M23.273 32h2.909v-2.908h-2.909v2.908zM11.636 21.818h2.909v-2.908h-2.909v2.908zM23.273 2.911h-2.909v-1.456c0-0.803-0.652-1.455-1.455-1.455-0.804 0-1.455 0.652-1.455 1.455v1.455h-8.727v-1.455c0-0.803-0.652-1.455-1.455-1.455-0.804 0-1.455 0.652-1.455 1.455v1.455h-2.909c-1.606 0-2.909 1.302-2.909 2.909v23.273c0 1.607 1.303 2.909 2.909 2.909h17.455v-2.908h-17.455v-23.274h2.909v1.455c0 0.803 0.65 1.455 1.455 1.455 0.803 0 1.455-0.652 1.455-1.455v-1.455h8.727v1.455c0 0.803 0.65 1.455 1.455 1.455 0.803 0 1.455-0.652 1.455-1.455v-1.455h2.909v20.364h2.909v-20.364c0-1.606-1.303-2.908-2.909-2.908zM7.273 26.185h11.636v-11.636h-11.636v11.636zM10.182 17.457h5.818v5.818h-5.818v-5.818z"></path>
</symbol>
<symbol id="olymp-week-calendar-icon" viewBox="0 0 26 32">
<title>week-calendar-icon</title>
<path d="M23.273 32h2.909v-2.908h-2.909v2.908zM23.273 2.911h-2.909v-1.456c0-0.803-0.652-1.455-1.455-1.455-0.804 0-1.455 0.652-1.455 1.455v1.455h-8.727v-1.455c0-0.803-0.652-1.455-1.455-1.455-0.804 0-1.455 0.652-1.455 1.455v1.455h-2.909c-1.606 0-2.909 1.302-2.909 2.909v23.273c0 1.607 1.303 2.909 2.909 2.909h17.455v-2.908h-17.455v-23.274h2.909v1.455c0 0.803 0.65 1.455 1.455 1.455 0.803 0 1.455-0.652 1.455-1.455v-1.455h8.727v1.455c0 0.803 0.65 1.455 1.455 1.455 0.803 0 1.455-0.652 1.455-1.455v-1.455h2.909v20.364h2.909v-20.364c0-1.606-1.303-2.908-2.909-2.908zM7.273 26.182h11.636v-2.908h-11.636v2.908zM18.909 18.909h-11.636v2.911h11.636v-2.911zM18.909 14.545h-11.636v2.909h11.636v-2.909z"></path>
</symbol>
<symbol id="olymp-month-calendar-icon" viewBox="0 0 26 32">
<title>month-calendar-icon</title>
<path d="M23.273 32h2.909v-2.908h-2.909v2.908zM23.273 2.911h-2.909v-1.456c0-0.803-0.65-1.455-1.455-1.455s-1.455 0.652-1.455 1.455v1.455h-8.727v-1.455c0-0.803-0.652-1.455-1.455-1.455-0.804 0-1.455 0.652-1.455 1.455v1.455h-2.909c-1.606 0-2.909 1.302-2.909 2.909v23.273c0 1.607 1.303 2.909 2.909 2.909h17.455v-2.908h-17.455v-23.274h2.909v1.455c0 0.803 0.65 1.455 1.455 1.455 0.803 0 1.455-0.652 1.455-1.455v-1.455h8.727v1.455c0 0.803 0.65 1.455 1.455 1.455s1.455-0.652 1.455-1.455v-1.455h2.909v20.364h2.909v-20.364c0-1.606-1.303-2.908-2.909-2.908zM7.273 26.182h2.909v-2.909h-2.909v2.909zM11.636 26.182h2.909v-2.909h-2.909v2.909zM16 26.182h2.909v-2.909h-2.909v2.909zM10.182 18.909h-2.909v2.911h2.909v-2.911zM14.545 18.909h-2.909v2.911h2.909v-2.911zM18.909 18.909h-2.909v2.911h2.909v-2.911zM10.182 14.545h-2.909v2.909h2.909v-2.909zM14.545 14.545h-2.909v2.909h2.909v-2.909zM18.909 14.545h-2.909v2.909h2.909v-2.909z"></path>
</symbol>
<symbol id="olymp-checked-calendar-icon" viewBox="0 0 26 32">
<title>checked-calendar-icon</title>
<path d="M23.273 31.999h2.909v-2.908h-2.909v2.908zM23.273 2.909h-2.909v-1.455c0-0.803-0.65-1.455-1.455-1.455s-1.455 0.652-1.455 1.455v1.455h-8.727v-1.455c0-0.803-0.652-1.455-1.455-1.455-0.804 0-1.455 0.652-1.455 1.455v1.455h-2.909c-1.606 0-2.909 1.302-2.909 2.909v23.273c0 1.606 1.303 2.908 2.909 2.908h17.455v-2.908h-17.455v-23.273h2.909v1.455c0 0.803 0.65 1.455 1.455 1.455 0.803 0 1.455-0.652 1.455-1.455v-1.455h8.727v1.455c0 0.803 0.65 1.455 1.455 1.455s1.455-0.652 1.455-1.455v-1.455h2.909v20.364h2.909v-20.364c0-1.607-1.303-2.909-2.909-2.909zM11.033 19.513l-2.057-2.057-2.057 2.057 4.115 4.113 8.227-8.228-2.057-2.057-6.172 6.172z"></path>
</symbol>
<symbol id="olymp-multimedia-icon" viewBox="0 0 32 32">
<title>multimedia-icon</title>
<path d="M28.8 0.002h-22.4v3.2h22.4v5.41l-11.57 5.786-7.579-8.496-6.451 5.166v-4.666h-3.2v22.4c0 1.766 1.434 3.198 3.2 3.198h25.6c1.766 0 3.2-1.432 3.2-3.198v-25.602c0-1.766-1.434-3.198-3.2-3.198zM3.2 15.168l6.203-4.963 7.872 8.995h-14.075v-4.032zM28.8 28.802h-25.6v-6.402h25.6v6.402zM28.8 19.2h-7.285l-2.078-2.33 9.363-4.682v7.011zM3.2 0.002h-3.2v3.2h3.2v-3.2zM11.2 24h-3.2v3.2h3.2v-3.2zM17.6 24h-3.2v3.2h3.2v-3.2zM24 24h-3.2v3.2h3.2v-3.2z"></path>
</symbol>
<symbol id="olymp-settings-v2-icon" viewBox="0 0 32 32">
<title>settings-v2-icon</title>
<path d="M8.889 21.333c-2.32 0-4.272 1.488-5.006 3.556h-3.883v3.556h3.883c0.734 2.066 2.686 3.556 5.006 3.556s4.272-1.49 5.006-3.556h10.994v-3.556h-10.994c-0.734-2.068-2.686-3.556-5.006-3.556zM10.667 28.444h-3.556v-3.556h3.556v3.556zM23.111 10.667c-2.32 0-4.272 1.49-5.006 3.556h-18.105v3.556h18.105c0.734 2.068 2.688 3.556 5.006 3.556s4.272-1.49 5.006-3.556h3.883v-3.556h-3.883c-0.734-2.068-2.686-3.556-5.006-3.556zM24.889 17.778h-3.556v-3.556h3.556v3.556zM13.895 3.556c-0.734-2.068-2.686-3.556-5.006-3.556s-4.272 1.488-5.006 3.556h-3.883v3.556h3.883c0.734 2.066 2.686 3.556 5.006 3.556s4.272-1.488 5.006-3.556h18.105v-3.556h-18.105zM10.667 7.111h-3.556v-3.556h3.556v3.556zM28.444 28.444h3.556v-3.556h-3.556v3.556z"></path>
</symbol>
<symbol id="olymp-close-icon" viewBox="0 0 32 32">
<title>close-icon</title>
<path d="M14.222 17.778h3.556v-3.556h-3.556v3.556zM31.084 3.429l-2.514-2.514-10.057 10.057 2.514 2.514 10.057-10.057zM0.916 28.571l2.514 2.514 10.057-10.055-2.516-2.514-10.055 10.055zM18.514 21.029l10.057 10.055 2.514-2.514-10.057-10.055-2.514 2.514zM0.916 3.431l10.057 10.055 2.516-2.514-10.059-10.057-2.514 2.516z"></path>
</symbol>
<symbol id="olymp-logout-icon" viewBox="0 0 43 32">
<title>logout-icon</title>
<path d="M26.667 3.557c4.962 0 9.232 2.91 11.23 7.111h3.838c-2.197-6.212-8.105-10.668-15.068-10.668s-12.873 4.457-15.070 10.667h3.84c1.998-4.199 6.268-7.109 11.23-7.109zM26.667 28.446c-4.962 0-9.232-2.91-11.23-7.111h-3.84c2.199 6.21 8.107 10.665 15.070 10.665 6.962 0 12.871-4.455 15.070-10.665h-3.838c-2 4.201-6.27 7.111-11.232 7.111zM23.111 17.778v-3.556h-16.306l3.252-3.25-2.514-2.514-7.543 7.541 7.543 7.543 2.514-2.514-3.252-3.252h16.306zM39.111 14.224v3.556h3.556v-3.556h-3.556z"></path>
</symbol>
<symbol id="olymp-settings-icon" viewBox="0 0 32 32">
<title>settings-icon</title>
<path d="M7.111 3.881v-3.881h-3.556v3.883c-2.068 0.734-3.556 2.686-3.556 5.006s1.488 4.272 3.556 5.006v10.994h3.556v-10.996c2.068-0.734 3.556-2.686 3.556-5.004s-1.488-4.272-3.556-5.008zM7.111 10.667h-3.556v-3.556h3.556v3.556zM28.444 3.881v-3.881h-3.556v3.883c-2.066 0.734-3.556 2.686-3.556 5.006s1.49 4.27 3.556 5.006v18.105h3.556v-18.107c2.066-0.734 3.556-2.686 3.556-5.004s-1.49-4.272-3.556-5.008zM28.444 10.667h-3.556v-3.556h3.556v3.556zM17.778 18.105v-18.105h-3.556v18.105c-2.068 0.734-3.556 2.686-3.556 5.006 0 2.318 1.488 4.27 3.556 5.006v3.883h3.556v-3.883c2.066-0.736 3.556-2.69 3.556-5.006 0-2.32-1.49-4.272-3.556-5.006zM17.778 24.887h-3.556v-3.554h3.556v3.554zM3.556 32h3.556v-3.556h-3.556v3.556z"></path>
</symbol>
<symbol id="olymp-blog-icon" viewBox="0 0 29 32">
<title>blog-icon</title>
<path d="M25.6 0h-22.4c-1.766 0-3.2 1.434-3.2 3.2v28.8h22.4v-6.4h6.4v-3.2h-9.6v6.4h-16v-25.6h22.4v9.6h3.2v-9.6c0-1.766-1.434-3.2-3.2-3.2zM22.4 6.4h-16v3.2h16v-3.2zM22.4 12.798h-16v3.202h16v-3.202zM6.4 22.4h9.6v-3.2h-9.6v3.2zM25.6 19.2h3.2v-3.2h-3.2v3.2z"></path>
</symbol>
<symbol id="olymp-status-icon" viewBox="0 0 36 32">
<title>status-icon</title>
<path d="M32-0.002h-28.444c-1.963 0-3.556 1.593-3.556 3.557v21.332h3.554v0.004h28.444v-3.557h-28.443v-17.778h28.444v24.889h-24.889v3.556h24.889c1.963 0 3.556-1.593 3.556-3.556v-24.889c0-1.964-1.593-3.557-3.556-3.557zM0 32h3.556v-3.556h-3.556v3.556zM7.109 7.111v3.557h10.667v-3.557h-10.667zM7.109 17.778h21.333v-3.556h-21.333v3.556z"></path>
</symbol>
<symbol id="olymp-happy-sticker-icon" viewBox="0 0 32 32">
<title>happy-sticker-icon</title>
<path d="M25.6 0.002h-4.8v3.2h4.8c1.766 0 3.2 1.432 3.2 3.198v12.8h-3.2c-3.534 0-6.4 2.867-6.4 6.402v3.2h-12.8c-1.766 0-3.2-1.434-3.2-3.2v-19.202c0-1.766 1.434-3.198 3.2-3.198h4.8v-3.2h-4.8c-3.534 0-6.4 2.864-6.4 6.398v19.202c0 3.534 2.866 6.398 6.4 6.398h17.6c3.234-3.248 5-4.765 8-7.998v-17.602c0-3.533-2.866-6.398-6.4-6.398zM22.4 28.802v-3.2c0-1.766 1.434-3.2 3.2-3.2h3.2c-1.8 1.618-3.982 3.949-6.4 6.4zM11.2 12.8h-3.2v3.2h3.2v-3.2zM15.978 22.395c2.646 0 4.792-1.358 4.792-3.034v-0.158h-9.586v0.158c0 1.675 2.147 3.034 4.794 3.034zM17.6 0h-3.2v3.2h3.2v-3.2zM23.998 12.8h-3.198v3.2h3.198v-3.2z"></path>
</symbol>
<symbol id="olymp-happy-face-icon" viewBox="0 0 32 32">
<title>happy-face-icon</title>
<path d="M16 0c-8.837 0-16 7.16-16 15.989 0 7.166 4.715 13.227 11.213 15.262v-3.39c-4.69-1.899-8-6.49-8-11.859 0-7.070 5.731-12.802 12.8-12.802s12.8 5.731 12.8 12.802c0 5.37-3.312 9.96-8 11.859v3.378c6.485-2.040 11.187-8.094 11.187-15.25 0-8.829-7.165-15.989-16-15.989zM11.211 12.8h-3.2v3.202h3.2v-3.202zM20.813 12.8v3.202h3.2v-3.202h-3.2zM11.198 19.365c0 1.675 2.146 3.032 4.794 3.032s4.794-1.357 4.794-3.032v-0.16h-9.587v0.16zM14.413 32.002h3.2v-3.2h-3.2v3.2z"></path>
</symbol>
<symbol id="olymp-computer-icon" viewBox="0 0 35 32">
<title>computer-icon</title>
<path d="M32 22.4h-28.8v-19.2h32c0-1.766-1.434-3.2-3.2-3.2h-28.8c-1.766 0-3.2 1.432-3.2 3.2v19.2c0 1.766 1.434 3.202 3.2 3.202h9.6v3.198h-4.8v3.2h19.2v-3.2h-4.8v-3.198h9.6c1.766 0 3.2-1.434 3.2-3.202v-9.598h-3.2v9.598zM19.2 28.8h-3.2v-3.198h3.2v3.198zM32 9.6h3.2v-3.198h-3.2v3.198zM12.8 14.402v-3.2h-3.2v3.2h3.2zM19.2 14.402v-3.2h-3.2v3.2h3.2zM25.6 14.402v-3.2h-3.2v3.2h3.2z"></path>
</symbol>
<symbol id="olymp-manage-widgets-icon" viewBox="0 0 39 32">
<title>manage-widgets-icon</title>
<path d="M0 3.554v24.891c0 1.963 1.593 3.556 3.556 3.556h14.222v-3.556h-14.222v-24.891h14.222v-3.556h-14.222c-1.963 0-3.556 1.593-3.556 3.556zM10.667 24.889v-17.778h-3.556v17.778h3.556zM14.222 24.889h3.556v-17.778h-3.556v17.778zM21.333 3.554h3.556v-3.556h-3.556v3.556zM28.444 3.554h3.556v-3.556h-3.556v3.556zM35.556-0.002v3.556h3.556v-3.556h-3.556zM35.556 10.665h3.556v-3.554h-3.556v3.554zM35.556 17.776h3.556v-3.556h-3.556v3.556zM35.556 24.889h3.556v-3.556h-3.556v3.556zM35.556 32h3.556v-3.556h-3.556v3.556zM28.444 32h3.556v-3.556h-3.556v3.556zM21.333 32h3.556v-3.556h-3.556v3.556z"></path>
</symbol>
<symbol id="olymp-badge-icon" viewBox="0 0 32 32">
<title>badge-icon</title>
<path d="M25.6 16c0-5.302-4.299-9.6-9.6-9.6s-9.6 4.298-9.6 9.6c0 5.301 4.299 9.598 9.6 9.598s9.6-4.298 9.6-9.598zM9.6 16c0-3.534 2.866-6.4 6.4-6.4s6.4 2.867 6.4 6.4-2.866 6.402-6.4 6.402-6.4-2.867-6.4-6.402zM16 0c-8.837 0-16 7.163-16 16 0 7.163 4.709 13.227 11.2 15.266v-3.405c-4.69-1.899-8-6.491-8-11.861 0-7.069 5.731-12.8 12.8-12.8s12.8 5.731 12.8 12.8c0 5.37-3.31 9.962-8 11.861v3.405c6.491-2.038 11.2-8.102 11.2-15.266 0-8.837-7.165-16-16-16zM14.4 31.998h3.2v-3.198h-3.2v3.198z"></path>
</symbol>
<symbol id="olymp-newsfeed-icon" viewBox="0 0 29 32">
<title>newsfeed-icon</title>
<path d="M6.4 25.602v-3.202h9.6v3.202h-9.6zM6.4 16h16v3.2h-16v-3.2zM22.4 25.602v6.398h-22.4v-28.8c0-1.766 1.434-3.2 3.2-3.2h22.4c1.766 0 3.2 1.434 3.2 3.2v9.6h-25.6v16.002h16v-6.402h9.6v3.202h-6.4zM25.6 9.6v-6.4h-22.4v6.4h22.4zM8 8h-3.2v-3.2h3.2v3.2zM12.8 8h-3.2v-3.2h3.2v3.2zM17.6 8h-3.2v-3.2h3.2v3.2zM25.6 16h3.2v3.2h-3.2v-3.2z"></path>
</symbol>
<symbol id="olymp-camera-icon" viewBox="0 0 43 32">
<title>camera-icon</title>
<path d="M21.333 10.667c-3.927 0-7.111 3.182-7.111 7.111 0 3.927 3.184 7.111 7.111 7.111s7.111-3.184 7.111-7.111c0-3.929-3.184-7.111-7.111-7.111zM21.333 21.337c-1.963 0-3.556-1.593-3.556-3.556s1.593-3.556 3.556-3.556 3.556 1.593 3.556 3.556-1.593 3.556-3.556 3.556zM35.556 3.556h-3.556c0-1.964-1.593-3.556-3.556-3.556h-14.222c-1.963 0-3.556 1.591-3.556 3.556h-3.556c-3.927 0-7.111 3.184-7.111 7.111v14.222c0 3.929 3.184 7.111 7.111 7.111 0 0 6.924 0 15.89 0h0.11v-3.556h-16c-1.963 0-3.556-1.593-3.556-3.556v-14.222c0-1.963 1.593-3.556 3.556-3.556h7.111v-3.556h14.222v3.556h7.111c1.963 0 3.556 1.593 3.556 3.556v14.222c0 1.963-1.593 3.556-3.556 3.556h-1.778v3.556c1.122 0 1.778 0 1.778 0 3.927 0 7.111-3.182 7.111-7.111v-14.222c0-3.927-3.184-7.111-7.111-7.111zM26.667 32h3.556v-3.556h-3.556v3.556z"></path>
</symbol>
<symbol id="olymp-stats-icon" viewBox="0 0 32 32">
<title>stats-icon</title>
<path d="M23.273 10.182h-2.909v1.236l-3.873 12.589-0.765-5.1h-2.941l1.761 11.745v1.347h2.909v-1.236l4.313-14.015 1.505 5.271v1.252h2.909v-2.909l-2.909-8.932v-1.249zM14.416 10.182l-1.325-8.836v-1.345h-2.909v1.233l-5.818 17.673h-4.364v2.912h7.273v-1.455l3.873-12.371 0.49 2.189h2.78zM29.091 20.364v2.909h2.909v-2.909h-2.909zM14.545 13.091h-2.909v2.908h2.909v-2.908z"></path>
</symbol>
<symbol id="olymp-calendar-icon" viewBox="0 0 26 32">
<title>calendar-icon</title>
<path d="M23.273 32h2.909v-2.909h-2.909v2.909zM23.273 2.911h-2.909v-1.456c0-0.801-0.652-1.455-1.455-1.455-0.804 0-1.455 0.653-1.455 1.455v1.456h-8.727v-1.456c0-0.801-0.652-1.455-1.455-1.455-0.804 0-1.455 0.653-1.455 1.455v1.456h-2.909c-1.606 0-2.909 1.302-2.909 2.909v23.271c0 1.607 1.303 2.909 2.909 2.909h17.455v-2.909h-17.455v-23.271h2.909v1.453c0 0.803 0.65 1.455 1.455 1.455 0.803 0 1.455-0.652 1.455-1.455v-1.453h8.727v1.453c0 0.803 0.65 1.455 1.455 1.455 0.803 0 1.455-0.652 1.455-1.455v-1.453h2.909v20.362h2.909v-20.362c0-1.607-1.303-2.909-2.909-2.909zM7.273 26.182h2.909v-2.909h-2.909v2.909zM14.545 26.182v-2.909h-2.909v2.909h2.909zM16 26.182h2.909v-2.909h-2.909v2.909zM14.545 18.909h-7.273v2.909h7.273v-2.909zM18.909 18.909h-2.909v2.909h2.909v-2.909zM14.545 14.547h-7.273v2.908h7.273v-2.908zM18.909 14.547h-2.909v2.908h2.909v-2.908z"></path>
</symbol>
<symbol id="olymp-happy-faces-icon" viewBox="0 0 33 32">
<title>happy-faces-icon</title>
<path d="M13.329 5.357c-7.364 0-13.333 5.965-13.333 13.325 0 5.971 3.929 11.023 9.344 12.716v-2.823c-3.908-1.584-6.667-5.409-6.667-9.885 0-5.889 4.776-10.665 10.667-10.665s10.667 4.776 10.667 10.665c0 4.476-2.759 8.303-6.667 9.885v2.815c5.404-1.7 9.323-6.745 9.323-12.708 0-7.36-5.969-13.325-13.333-13.325zM9.34 16.025h-2.667v2.665h2.667v-2.665zM17.34 16.025v2.665h2.667v-2.665h-2.667zM9.328 21.495c0 1.395 1.788 2.527 3.995 2.527s3.995-1.132 3.995-2.527v-0.135h-7.989v0.135zM12.007 32.025h2.667v-2.668h-2.667v2.668zM13.805 2.691h8.868c0 0 1.495 0.417 2.183 0.697l2.397-1.797c-1.747-0.993-3.761-1.565-5.913-1.565-2.856 0-5.475 1.001-7.535 2.665zM32.472 7.56l-2.131 2.129c0.195 0.751 0.331 1.523 0.331 2.336 0 1.756-0.488 3.392-1.333 4.789v4.14c2.452-2.195 4-5.38 4-8.931 0.001-1.58-0.311-3.083-0.867-4.464zM30.673 4.025h-2.667v2.667h2.667v-2.667z"></path>
</symbol>
<symbol id="olymp-thunder-icon" viewBox="0 0 26 32">
<title>thunder-icon</title>
<path d="M25.6 11.198h-8l6.4-11.198-18.669 0.005-5.331 17.597h4.798l-1.598 14.398 4.8-4.458v-4.914l-1.6 1.371 1.6-9.602h-3.2l3.2-11.2h9.6l-4.8 11.2h4.8v4.23l8-7.43zM11.2 22.4h3.2v-3.2h-3.2v3.2z"></path>
</symbol>
<symbol id="olymp-menu-icon" viewBox="0 0 41 32">
<title>menu-icon</title>
<path d="M4.571 0h-4.571v4.571h4.571v-4.571zM9.143 0v4.571h32v-4.571h-32zM13.714 13.714h-13.714v4.571h13.714v-4.571zM18.286 13.714v4.571h4.571v-4.571h-4.571zM27.429 18.286h13.714v-4.571h-13.714v4.571zM0 32h32v-4.569h-32v4.569zM36.571 32h4.571v-4.569h-4.571v4.569z"></path>
</symbol>
<symbol id="olymp-shopping-bag-icon" viewBox="0 0 512 512">
<path d="m326 512l116 0-23-419-70 0c0-51-42-93-93-93-51 0-93 42-93 93l-70 0-23 419 116 0 0-47-70 0 24-325 23 0 0 46 46 0 0-46 94 0 0 46 46 0 0-46 23 0 24 325-70 0z m-117-419c0-26 21-46 47-46 26 0 47 20 47 46z m24 419l46 0 0-47-46 0z"/>
</symbol>

<symbol id="olymp-friend_request-icon" viewBox="0 0 512 512">
<path d="m63.628906 413.296875c-4.148437 0-7.515625 3.367187-7.515625 7.515625v83.671875c0 4.148437 3.367188 7.515625 7.515625 7.515625 4.152344 0 7.515625-3.367188 7.515625-7.515625v-83.671875c0-4.148438-3.363281-7.515625-7.515625-7.515625zm0 0"/><path d="m72.183594 130.175781c.644531 23.289063 10.414062 44.339844 25.859375 59.691407.28125.324218.589843.628906.921875.902343 15.78125 15.238281 37.242187 24.625 60.859375 24.625 23.617187 0 45.078125-9.386719 60.859375-24.625.335937-.273437.644531-.578125.925781-.902343 15.984375-15.890626 25.894531-37.886719 25.894531-62.152344 0-47.414063-37.835937-86.15625-84.898437-87.628906l-46.066407-38.386719c-4.304687-3.585938-11.085937-1.183594-12.183593 4.296875l-6.46875 32.355468-24.417969-6.105468c-5.257812-1.316406-10.253906 3.453125-9.195312 8.765625l5.808593 29.027343-29.027343-5.804687c-6.53125-1.308594-11.472657 6.304687-7.589844 11.738281zm39.042968 51.488281v-36.140624l12.671876-25.34375 34.453124 6.890624c.972657.195313 1.976563.195313 2.949219 0l34.453125-6.890624 12.671875 25.34375v36.140624c-12.882812 11.617188-29.929687 18.699219-48.601562 18.699219s-35.714844-7.082031-48.597657-18.699219zm-33.039062-94.675781c5.167969 1.03125 9.878906-3.675781 8.84375-8.84375l-5.6875-28.4375 20.542969 5.136719c4.105469 1.027344 8.363281-1.675781 9.191406-5.816406l5.539063-27.695313 38.394531 31.992188c1.335937 1.117187 3.070312 1.742187 4.8125 1.742187 40.058593 0 72.648437 32.589844 72.648437 72.648438 0 12.6875-3.277344 24.621094-9.019531 35.011718v-18.976562c0-1.167969-.269531-2.320312-.792969-3.363281l-16.03125-32.066407c-1.515625-3.027343-4.875-4.671874-8.195312-4.007812l-38.609375 7.722656-38.609375-7.722656c-3.320313-.660156-6.679688.980469-8.195313 4.007812l-16.03125 32.066407c-.523437 1.046875-.792969 2.195312-.792969 3.363281v18.976562c-5.742187-10.390624-9.019531-22.324218-9.019531-35.011718 0-1.546875-.5-3.105469-1.398437-4.367188l-29.035156-40.648437zm0 0"/><path d="m383.78125 263.996094c0-39.507813-32.140625-71.648438-71.644531-71.648438-21.421875 0-40.664063 9.464844-53.804688 24.414063-.730469-.234375-194.703125-.363281-194.703125-.363281-35.085937 0-63.628906 28.542968-63.628906 63.628906v224.457031c0 4.152344 3.363281 7.515625 7.515625 7.515625 4.148437 0 7.515625-3.363281 7.515625-7.515625v-144.792969h41.082031v25.050782c0 4.148437 3.367188 7.515624 7.515625 7.515624 4.152344 0 7.515625-3.367187 7.515625-7.515624v-64.632813c0-4.152344-3.363281-7.515625-7.515625-7.515625-4.148437 0-7.515625 3.363281-7.515625 7.515625v24.550781h-41.082031v-64.632812c0-26.796875 21.800781-48.597656 48.597656-48.597656h44.339844l45.84375 61.125c2.957031 3.941406 9.070312 3.941406 12.027344 0l45.84375-61.125h36.667968c-5.011718 9.777343-7.859374 20.839843-7.859374 32.566406 0 36.964844 28.144531 67.480468 64.128906 71.25v9.414062h-41.082032v-8.519531c0-4.148437-3.367187-7.515625-7.515624-7.515625-4.152344 0-7.515626 3.367188-7.515626 7.515625v168.34375c0 4.152344 3.363282 7.515625 7.515626 7.515625 4.148437 0 7.515624-3.363281 7.515624-7.515625v-144.792969h41.082032v144.792969c0 4.152344 3.363281 7.515625 7.515625 7.515625 4.148437 0 7.515625-3.363281 7.515625-7.515625v-169.238281c35.984375-3.769532 64.128906-34.285156 64.128906-71.25zm-223.957031 11.523437-33.066407-44.089843h66.136719zm152.3125 45.089844c-31.21875 0-56.617188-25.398437-56.617188-56.613281 0-31.21875 25.398438-56.617188 56.617188-56.617188s56.617187 25.398438 56.617187 56.617188c0 31.214844-25.398437 56.613281-56.617187 56.613281zm0 0"/><path d="m315.011719 233.003906c-2.804688-1.164062-6.039063-.523437-8.1875 1.628906l-16.035157 16.03125c-2.933593 2.933594-2.933593 7.695313 0 10.628907 2.9375 2.933593 7.695313 2.933593 10.628907 0l3.203125-3.203125v29.953125c0 4.152343 3.363281 7.515625 7.515625 7.515625 4.148437 0 7.515625-3.363282 7.515625-7.515625v-48.097657c0-3.039062-1.832032-5.78125-4.640625-6.941406zm0 0"/></symbol>



<symbol id="olymp-about-icon" viewBox="0 0 512 512">
<path d="m384 400.449219c0-17.992188-12.121094-33.855469-29.480469-38.59375l-58.519531-15.96875v-23.703125c9.929688-11.28125 16-26.023438 16-42.191406v-32c0-35.289063-28.710938-64-64-64s-64 28.710937-64 64v32c0 16.167968 6.070312 30.910156 16 42.191406v23.703125l-58.519531 15.960937c-17.359375 4.738282-29.480469 20.609375-29.480469 38.601563v79.550781h-112v16h496v-16h-112zm-136-26.695313-32-25.601562v-12.816406c9.425781 5.480468 20.335938 8.664062 32 8.664062s22.574219-3.183594 32-8.65625v12.816406zm-13.0625 10.046875-14.441406 10.832031-8.289063-29.015624zm48.855469-18.191406-8.289063 29.015625-14.441406-10.832031zm-83.792969-117.609375c0-26.472656 21.527344-48 48-48s48 21.527344 48 48v32c0 26.472656-21.527344 48-48 48s-48-21.527344-48-48zm-72 152.449219c0-10.800781 7.273438-20.320313 17.6875-23.160157l49.367188-13.464843 16.441406 57.550781 36.503906-27.375 36.496094 27.375 16.441406-57.550781 49.367188 13.464843c10.421874 2.839844 17.695312 12.359376 17.695312 23.160157v79.550781h-40v-72h-16v72h-128v-72h-16v72h-40zm0 0"/><path d="m63.433594 304h16v16h-16zm0 0"/><path d="m96 192h96v-96c0-52.9375-43.0625-96-96-96s-96 43.0625-96 96 43.0625 96 96 96zm0-176c44.113281 0 80 35.886719 80 80v80h-80c-44.113281 0-80-35.886719-80-80s35.886719-80 80-80zm0 0"/><path d="m496 96c0-52.9375-43.0625-96-96-96s-96 43.0625-96 96v96h96c52.9375 0 96-43.0625 96-96zm-176 0c0-44.113281 35.886719-80 80-80s80 35.886719 80 80-35.886719 80-80 80h-80zm0 0"/><path d="m417.367188 149.199219c2.738281-.894531 5.394531-2 7.960937-3.3125l10.191406 5.105469 19.472657-19.480469-5.097657-10.175781c1.3125-2.566407 2.410157-5.230469 3.304688-7.96875l10.800781-3.597657v-27.53125l-10.800781-3.597656c-.894531-2.738281-2-5.402344-3.304688-7.96875l5.097657-10.175781-19.472657-19.488282-10.191406 5.105469c-2.566406-1.3125-5.222656-2.417969-7.960937-3.3125l-3.597657-10.800781h-27.53125l-3.597656 10.800781c-2.738281.894531-5.394531 2-7.960937 3.3125l-10.199219-5.105469-19.472657 19.480469 5.097657 10.175781c-1.3125 2.566407-2.410157 5.230469-3.304688 7.96875l-10.800781 3.597657v27.53125l10.800781 3.597656c.894531 2.738281 2 5.402344 3.304688 7.96875l-5.097657 10.175781 19.472657 19.480469 10.191406-5.105469c2.566406 1.3125 5.222656 2.417969 7.960937 3.3125l3.597657 10.800782h27.53125zm-12.429688-13.296875-2.707031 8.097656h-4.46875l-2.707031-8.097656-4.328126-1.03125c-4.109374-.976563-8.03125-2.605469-11.664062-4.839844l-3.789062-2.335938-7.648438 3.832032-3.160156-3.167969 3.824218-7.640625-2.335937-3.789062c-2.234375-3.625-3.863281-7.554688-4.839844-11.664063l-1.023437-4.328125-8.089844-2.707031v-4.46875l8.097656-2.707031 1.023438-4.328126c.984375-4.109374 2.605468-8.039062 4.839844-11.664062l2.335937-3.789062-3.816406-7.632813 3.160156-3.167969 7.648437 3.832032 3.789063-2.335938c3.632813-2.234375 7.554687-3.863281 11.664063-4.839844l4.328124-1.03125 2.699219-8.097656h4.46875l2.707031 8.097656 4.328126 1.03125c4.109374.976563 8.03125 2.605469 11.664062 4.839844l3.789062 2.335938 7.648438-3.832032 3.160156 3.167969-3.839844 7.640625 2.335938 3.789062c2.234375 3.625 3.863281 7.554688 4.839844 11.664063l1.023437 4.328125 8.105469 2.707031v4.46875l-8.097656 2.707031-1.023438 4.328126c-.984375 4.109374-2.605468 8.039062-4.839844 11.664062l-2.335937 3.789062 3.824219 7.640626-3.160156 3.167968-7.648438-3.832031-3.789062 2.335937c-3.632813 2.234376-7.554688 3.863282-11.664063 4.839844zm0 0"/><path d="m400 72c-13.230469 0-24 10.769531-24 24s10.769531 24 24 24 24-10.769531 24-24-10.769531-24-24-24zm0 32c-4.40625 0-8-3.585938-8-8s3.59375-8 8-8 8 3.585938 8 8-3.59375 8-8 8zm0 0"/><path d="m439.03125 240c-5.496094 0-10.71875 1.769531-15.03125 5.023438-4.3125-3.253907-9.535156-5.023438-15.03125-5.023438-13.769531 0-24.96875 11.199219-24.96875 24.96875 0 6.574219 2.664062 13.007812 7.3125 17.65625l32.6875 32.6875 32.6875-32.6875c4.648438-4.648438 7.3125-11.082031 7.3125-17.65625 0-13.769531-11.199219-24.96875-24.96875-24.96875zm6.34375 31.3125-21.375 21.375-21.375-21.375c-1.664062-1.671875-2.625-3.984375-2.625-6.34375 0-4.945312 4.023438-8.96875 8.96875-8.96875 2.398438 0 4.648438.929688 6.34375 2.625l8.6875 8.6875 8.6875-8.6875c1.695312-1.695312 3.945312-2.625 6.34375-2.625 4.945312 0 8.96875 4.023438 8.96875 8.96875 0 2.359375-.960938 4.671875-2.625 6.34375zm0 0"/><path d="m472 208h-96c-13.230469 0-24 10.769531-24 24v96c0 13.230469 10.769531 24 24 24h96c13.230469 0 24-10.769531 24-24v-96c0-13.230469-10.769531-24-24-24zm8 120c0 4.414062-3.59375 8-8 8h-96c-4.40625 0-8-3.585938-8-8v-96c0-4.414062 3.59375-8 8-8h96c4.40625 0 8 3.585938 8 8zm0 0"/><path d="m24 352h96c13.230469 0 24-10.769531 24-24v-96c0-13.230469-10.769531-24-24-24h-96c-13.230469 0-24 10.769531-24 24v96c0 13.230469 10.769531 24 24 24zm-8-120c0-4.414062 3.59375-8 8-8h96c4.40625 0 8 3.585938 8 8v96c0 4.414062-3.59375 8-8 8h-96c-4.40625 0-8-3.585938-8-8zm0 0"/><path d="m72 256c15 0 29.105469 5.640625 39.695312 15.871094l11.121094-11.503906c-13.59375-13.136719-31.640625-20.367188-50.816406-20.367188s-37.222656 7.230469-50.816406 20.375l11.121094 11.503906c10.589843-10.238281 24.695312-15.878906 39.695312-15.878906zm0 0"/><path d="m44.175781 281.910156 10.390625 12.167969c9.1875-7.839844 25.679688-7.839844 34.867188 0l10.390625-12.167969c-7.488281-6.390625-17.367188-9.910156-27.824219-9.910156s-20.335938 3.519531-27.824219 9.910156zm0 0"/><path d="m96 160c35.289062 0 64-28.710938 64-64s-28.710938-64-64-64-64 28.710938-64 64 28.710938 64 64 64zm-48-64c0-6.863281 1.472656-13.382812 4.078125-19.296875 3.464844 2.050781 7.800781 4.191406 13.128906 6.105469-.757812 4.214844-1.207031 8.625-1.207031 13.191406s.449219 8.976562 1.207031 13.191406c-5.328125 1.914063-9.664062 4.046875-13.128906 6.105469-2.605469-5.914063-4.078125-12.433594-4.078125-19.296875zm48-8c5.550781 0 10.519531-.550781 15.207031-1.304688.488281 3.007813.792969 6.105469.792969 9.304688 0 3.191406-.304688 6.289062-.792969 9.304688-4.695312-.753907-9.65625-1.304688-15.207031-1.304688s-10.519531.550781-15.207031 1.304688c-.488281-3.007813-.792969-6.105469-.792969-9.304688 0-3.191406.304688-6.289062.792969-9.304688 4.695312.753907 9.65625 1.304688 15.207031 1.304688zm-10.753906-16.726562c3.265625-7.847657 7.433594-14.3125 10.769531-18.800782 3.335937 4.472656 7.511719 10.925782 10.769531 18.792969-3.34375.4375-6.898437.734375-10.785156.734375-3.871094 0-7.414062-.296875-10.753906-.726562zm58.753906 24.726562c0 6.863281-1.472656 13.382812-4.078125 19.296875-3.464844-2.050781-7.800781-4.191406-13.128906-6.105469.757812-4.214844 1.207031-8.625 1.207031-13.191406s-.449219-8.976562-1.207031-13.191406c5.328125-1.914063 9.664062-4.046875 13.128906-6.105469 2.605469 5.914063 4.078125 12.433594 4.078125 19.296875zm-37.246094 24.726562c-3.265625 7.847657-7.433594 14.3125-10.769531 18.800782-3.335937-4.472656-7.511719-10.925782-10.769531-18.792969 3.34375-.4375 6.898437-.734375 10.785156-.734375 3.871094 0 7.414062.296875 10.753906.726562zm-45.882812 7.882813c2.320312-1.335937 5.191406-2.738281 8.664062-4.035156 2.242188 5.839843 4.914063 11.074219 7.609375 15.5625-6.214843-2.671875-11.730469-6.640625-16.273437-11.527344zm53.976562 11.527344c2.695313-4.488281 5.367188-9.722657 7.609375-15.5625 3.464844 1.304687 6.34375 2.707031 8.664063 4.035156-4.535156 4.886719-10.050782 8.855469-16.273438 11.527344zm16.28125-76.746094c-2.320312 1.335937-5.191406 2.738281-8.664062 4.035156-2.242188-5.839843-4.914063-11.074219-7.609375-15.5625 6.214843 2.671875 11.730469 6.640625 16.273437 11.527344zm-53.976562-11.527344c-2.695313 4.488281-5.367188 9.722657-7.609375 15.5625-3.472657-1.296875-6.34375-2.699219-8.671875-4.035156 4.542968-4.886719 10.058594-8.855469 16.28125-11.527344zm0 0"/>
</symbol>


<symbol id="olymp-video-icon" viewBox="0 0 512 512">
<g>
	<path style="fill-rule:evenodd;clip-rule:evenodd;" d="M468.802,92.125H43.197C19.378,92.125,0,111.504,0,135.323v241.353   c0,23.819,19.378,43.198,43.197,43.198h425.604c23.819,0,43.198-19.379,43.198-43.198V135.323   C512,111.504,492.621,92.125,468.802,92.125z M492,376.676c0,12.792-10.406,23.198-23.198,23.198H43.197   C30.406,399.874,20,389.467,20,376.676V135.323c0-12.792,10.406-23.198,23.197-23.198h425.604   c12.792,0,23.198,10.407,23.198,23.198V376.676z"/>
	<path style="fill-rule:evenodd;clip-rule:evenodd;" d="M225.045,313.964c1.755,0,3.51-0.462,5.074-1.383l81.444-47.965   c3.052-1.797,4.926-5.075,4.926-8.617c0-3.542-1.874-6.819-4.926-8.617l-81.444-47.965c-3.094-1.822-6.923-1.845-10.037-0.065   c-3.114,1.781-5.037,5.094-5.037,8.682v95.93c0,3.588,1.923,6.901,5.037,8.682C221.62,313.525,223.333,313.964,225.045,313.964z    M235.045,225.528l51.739,30.471l-51.739,30.471V225.528z"/>
	<path style="fill-rule:evenodd;clip-rule:evenodd;" d="M256,141.996c-46.554,0-88,27.855-105.589,70.964   c-2.087,5.114,0.367,10.95,5.481,13.037c5.113,2.087,10.949-0.368,13.036-5.481c14.504-35.55,48.682-58.52,87.071-58.52   c51.834,0,94.004,42.169,94.004,94.003c0,51.834-42.17,94.004-94.004,94.004c-38.39,0-72.567-22.97-87.071-58.52   c-2.086-5.113-7.923-7.565-13.036-5.481c-5.114,2.086-7.568,7.923-5.481,13.037C168,342.148,209.446,370.003,256,370.003   c62.862,0,114.004-51.142,114.004-114.004C370.004,193.138,318.862,141.996,256,141.996z"/>
	<path style="fill-rule:evenodd;clip-rule:evenodd;" d="M99.527,65.33h44.359c5.522,0,10-4.477,10-10c0-5.523-4.478-10-10-10H99.527   c-5.522,0-10,4.477-10,10C89.527,60.853,94.005,65.33,99.527,65.33z"/>
	<path style="fill-rule:evenodd;clip-rule:evenodd;" d="M189.057,65.33l44.358,0.001c5.523,0,10-4.477,10-10c0-5.522-4.476-10-10-10   l-44.358-0.001c-5.522,0-10,4.478-10,10C179.057,60.852,183.533,65.33,189.057,65.33z"/>
	<path style="fill-rule:evenodd;clip-rule:evenodd;" d="M368.112,65.331h44.359c5.522,0,10-4.477,10-10c0-5.523-4.478-10-10-10   h-44.359c-5.522,0-10,4.477-10,10C358.112,60.854,362.59,65.331,368.112,65.331z"/>
	<path style="fill-rule:evenodd;clip-rule:evenodd;" d="M457.641,65.331L502,65.332c5.522,0,10-4.478,10-10c0-5.522-4.477-10-10-10   l-44.359-0.001c-5.522,0-10,4.477-10,10C447.641,60.853,452.117,65.331,457.641,65.331z"/>
	<path style="fill-rule:evenodd;clip-rule:evenodd;" d="M10,65.33h44.358c5.523,0,10-4.477,10-10c0-5.523-4.477-10-10-10H10   c-5.523,0-10,4.477-10,10C0,60.853,4.477,65.33,10,65.33z"/>
	<path style="fill-rule:evenodd;clip-rule:evenodd;" d="M278.584,65.331h44.359c5.522,0,10-4.477,10-10c0-5.523-4.478-10-10-10   h-44.359c-5.523,0-10,4.477-10,10C268.584,60.854,273.061,65.331,278.584,65.331z"/>
	<path style="fill-rule:evenodd;clip-rule:evenodd;" d="M322.943,446.67l-44.359-0.001c-5.523,0-10,4.477-10,10   c0,5.522,4.476,10,10,10l44.359,0.001c5.522,0,10-4.478,10-10C332.943,451.148,328.467,446.67,322.943,446.67z"/>
	<path style="fill-rule:evenodd;clip-rule:evenodd;" d="M412.472,446.67h-44.359c-5.522,0-10,4.477-10,10c0,5.523,4.478,10,10,10   h44.359c5.522,0,10-4.477,10-10C422.472,451.147,417.994,446.67,412.472,446.67z"/>
	<path style="fill-rule:evenodd;clip-rule:evenodd;" d="M54.358,446.669L10,446.668c-5.523,0-10,4.478-10,10c0,5.522,4.477,10,10,10   l44.358,0.001c5.523,0,10-4.477,10-10C64.358,451.147,59.882,446.669,54.358,446.669z"/>
	<path style="fill-rule:evenodd;clip-rule:evenodd;" d="M502,446.67h-44.359c-5.522,0-10,4.477-10,10c0,5.523,4.478,10,10,10H502   c5.522,0,10-4.477,10-10C512,451.147,507.522,446.67,502,446.67z"/>
	<path style="fill-rule:evenodd;clip-rule:evenodd;" d="M143.887,446.669H99.527c-5.522,0-10,4.477-10,10c0,5.523,4.478,10,10,10   h44.359c5.522,0,10-4.477,10-10C153.887,451.146,149.409,446.669,143.887,446.669z"/>
	<path style="fill-rule:evenodd;clip-rule:evenodd;" d="M233.415,446.669h-44.358c-5.522,0-10,4.477-10,10c0,5.523,4.478,10,10,10   h44.358c5.523,0,10-4.477,10-10C243.415,451.146,238.938,446.669,233.415,446.669z"/>
	<path style="fill-rule:evenodd;clip-rule:evenodd;" d="M161.996,255.999c0-5.508-4.492-10-10-10c-5.508,0-10,4.492-10,10   c0,5.508,4.492,10,10,10C157.504,265.999,161.996,261.507,161.996,255.999z"/>
</g></symbol>


<symbol id="olymp-chat-icon" viewBox="0 0 512 512">
<g>
	<path d="M473.146,256.484c-7.043-6.634-17.328,4.283-10.287,10.917c22.155,20.875,33.865,45.593,33.865,71.482   c0,30.808-16.824,60.186-47.373,82.723c-1.917,1.414-3.048,3.654-3.048,6.035v58.521l-37.626-37.626   c-2.039-2.039-5.065-2.727-7.784-1.774c-24.279,8.51-50.435,12.825-77.739,12.825c-95.706,0-173.569-54.147-173.569-120.703   c0-37.936,25.703-69.371,56.354-88.932c34.596-22.079,76.471-31.77,117.216-31.77c40.058,0,79.166,9.771,110.119,27.513   c8.392,4.814,15.852-8.203,7.459-13.014c-23.296-13.353-49.94-22.347-78.472-26.624V23.366c0-12.859-10.462-23.32-23.32-23.32   H23.32C10.462,0.045,0,10.507,0,23.366v35.679c0,9.673,15,9.673,15,0V23.366c0-4.588,3.732-8.32,8.32-8.32h315.619   c4.588,0,8.32,3.732,8.32,8.32v180.892c-7.924-0.715-15.969-1.076-24.106-1.076c-49.904,0-96.914,13.825-132.369,38.928   c-0.108,0.076-0.212,0.155-0.32,0.232h-64.423c-1.989,0-3.896,0.79-5.304,2.197l-63.899,63.9v-58.597c0-4.142-3.357-7.5-7.5-7.5   H23.32c-4.588,0-8.32-3.732-8.32-8.32V99.045c0-9.673-15-9.673-15,0v134.977c0,12.859,10.462,23.32,23.32,23.32h18.519v69.204   c0,6.514,8.17,9.936,12.804,5.303l74.506-74.507h43.076c-24.433,23.336-37.64,51.652-37.64,81.542   c0,36.746,19.959,71.114,56.2,96.774c35.455,25.104,82.465,38.929,132.369,38.929c27.33,0,53.616-4.085,78.213-12.147   l47.133,47.133c4.561,4.559,12.804,1.228,12.804-5.303v-72.893c32.551-25.148,50.421-57.866,50.421-92.492   C511.724,308.758,498.384,280.265,473.146,256.484z"/>
	<path d="M290.153,369.545h123c9.673,0,9.673-15,0-15h-123C280.481,354.545,280.481,369.545,290.153,369.545z"/>
	<path d="M364.653,319.045c0-4.142-3.357-7.5-7.5-7.5h-124c-9.673,0-9.673,15,0,15h124   C361.296,326.545,364.653,323.187,364.653,319.045z"/>
	<path d="M413.153,311.545h-25c-9.673,0-9.673,15,0,15h25C422.826,326.545,422.826,311.545,413.153,311.545z"/>
	<path d="M91,160.545h124c9.673,0,9.673-15,0-15H91C81.327,145.545,81.327,160.545,91,160.545z"/>
	<path d="M271,117.545c9.673,0,9.673-15,0-15H147c-9.673,0-9.673,15,0,15H271z"/>
	<path d="M91,117.545h25c9.673,0,9.673-15,0-15H91C81.327,102.545,81.327,117.545,91,117.545z"/>
	<path d="M389.686,76.532c23.262,3.747,45.994,18.069,62.368,39.295c12.222,15.844,19.911,34.087,22.157,51.925l-11.958-10.643   c-7.225-6.431-17.198,4.773-9.973,11.204l23.734,21.125c2.769,3.942,8.802,4.222,11.995,0.636l21.594-24.259   c6.431-7.225-4.771-17.197-11.205-9.974l-9.269,10.414c-2.533-20.606-11.277-41.545-25.198-59.591   c-18.68-24.214-44.871-40.595-71.86-44.942C382.52,60.18,380.136,74.994,389.686,76.532z"/>
	<path d="M143.192,483.644c-33.906-5.461-62.365-31.653-76.212-62.285c-4.146-9.171-7.054-18.94-8.313-28.935l11.958,10.643   c7.226,6.431,17.198-4.773,9.973-11.204l-23.734-21.125c-2.772-3.946-8.795-4.229-11.995-0.636l-21.594,24.259   c-6.408,7.2,4.753,17.218,11.205,9.974l9.269-10.414c6.107,49.681,46.823,96.442,97.058,104.533   C150.361,499.988,152.737,485.181,143.192,483.644z"/>
</g>
</symbol>


<symbol id="olymp-notification-icon" viewBox="0 0 512 512">
<path d="m426.699219 119.886719c0 4.140625 3.359375 7.5 7.5 7.5 4.144531 0 7.5-3.359375 7.5-7.5 0-66.105469-53.863281-119.886719-120.070313-119.886719-37.476562 0-70.996094 17.238281-93.03125 44.1875-9.761718-10.109375-24.136718-14.808594-38.472656-11.941406-11.007812 2.214844-20.492188 8.570312-26.710938 17.898437-6.222656 9.335938-8.429687 20.527344-6.21875 31.527344.800782 3.972656 2.164063 7.761719 4.019532 11.28125-58.863282 16.792969-100.488282 71.046875-100.488282 133.128906 0 4.140625 3.359376 7.5 7.5 7.5 4.144532 0 7.5-3.359375 7.5-7.5 0-58.789062 41.863282-109.714843 99.535157-121.101562.007812 0 .015625-.003907.023437-.003907 7.90625-1.554687 16.015625-2.339843 24.101563-2.339843 1.140625 0 2.28125.019531 3.417969.050781-.8125 5.617188-1.242188 11.359375-1.242188 17.199219 0 66.105469 53.863281 119.886719 120.066406 119.886719.472656 0 .941406-.023438 1.414063-.027344v36.265625c0 29.269531 12.917969 56.8125 35.441406 75.566406l9.023437 7.511719c9.082032 7.558594 14.292969 18.664062 14.292969 30.460937v.46875c0 21.585938-17.59375 39.144531-39.21875 39.144531h-288.363281c-21.625 0-39.21875-17.558593-39.21875-39.144531 0-5.894531 1.34375-11.808593 3.882812-17.101562 2.546876-5.3125 6.316407-10.070313 10.90625-13.765625l9.257813-7.464844c23.3125-18.765625 36.679687-46.683594 36.679687-76.585938v-16.441406c0-4.140625-3.355468-7.5-7.5-7.5-4.140624 0-7.5 3.359375-7.5 7.5v16.441406c0 25.339844-11.328124 48.996094-31.089843 64.90625l-9.257813 7.464844c-6.316406 5.082032-11.515625 11.640625-15.019531 18.957032-3.507813 7.304687-5.359375 15.464843-5.359375 23.589843 0 29.855469 24.324219 54.144531 54.222656 54.144531h78.511719c-.023437.742188-.046875 1.480469-.046875 2.21875 0 36.183594 29.480469 65.621094 65.714844 65.621094s65.710937-29.4375 65.710937-65.621094c0-.738281-.019531-1.476562-.046875-2.21875h78.519532c29.894531 0 54.21875-24.289062 54.21875-54.144531v-.46875c0-16.269531-7.179688-31.570312-19.695313-41.988281l-9.023437-7.511719c-19.089844-15.894531-30.039063-39.234375-30.039063-64.039062v-37.363281c20.386719-2.757813 39.566406-10.652344 56.1875-23.269532 20.339844-15.4375 35.480469-37.355468 42.632813-61.714844 1.167968-3.972656-1.109376-8.140624-5.082032-9.308593-3.976562-1.167969-8.144531 1.109375-9.308594 5.082031-6.253906 21.304688-19.507812 40.476562-37.3125 53.992188-18.390624 13.960937-40.359374 21.339843-63.53125 21.339843-57.9375 0-105.070312-47.050781-105.070312-104.886719 0-57.832031 47.132812-104.882812 105.066406-104.882812 57.9375 0 105.070313 47.050781 105.070313 104.886719zm-177.585938 326.496093c0 27.910157-22.75 50.617188-50.710937 50.617188-27.964844 0-50.714844-22.707031-50.714844-50.617188 0-.738281.019531-1.480468.050781-2.21875h101.324219c.035156.738282.050781 1.480469.050781 2.21875zm-49.726562-358.746093c-7.589844 0-15.191407.628906-22.671875 1.851562-2.371094-3.167969-4.019532-6.835937-4.8125-10.777343-1.421875-7.0625 0-14.25 3.992187-20.246094 4-6 10.101563-10.089844 17.179688-11.511719 10.152343-2.035156 20.347656 1.832031 26.5625 9.746094-5.957031 9.554687-10.609375 20-13.699219 31.089843-2.167969-.101562-4.359375-.152343-6.550781-.152343zm0 0"/><path d="m321.628906 172.03125c4.144532 0 7.5-3.355469 7.5-7.5v-93.445312c0-2.972657-1.75-5.660157-4.46875-6.863282-2.714844-1.199218-5.882812-.683594-8.078125 1.316406l-16.085937 14.644532c-3.0625 2.789062-3.285156 7.53125-.5 10.59375 2.789062 3.0625 7.53125 3.285156 10.597656.496094l3.535156-3.21875v76.476562c0 4.144531 3.359375 7.5 7.5 7.5zm0 0"/>
</symbol>


<symbol id="olymp-profile_setting-icon" viewBox="0 0 512 512">
<g>
	<g>
		<path d="M256,154c-56.243,0-102,45.757-102,102s45.757,102,102,102s102-45.757,102-102C358,199.757,312.243,154,256,154z
			 M308,319.354C293.839,330.998,275.722,338,256,338s-37.839-7.002-52-18.646v-15.805c0-8.219,5.864-15.277,13.943-16.785
			l10.482-1.955c6.928,6.62,16.303,10.699,26.619,10.699h1.912c10.316,0,19.691-4.079,26.619-10.699l10.482,1.955
			c8.079,1.508,13.943,8.566,13.943,16.785V319.354z M236.476,256.939v-21.123c0-10.238,8.33-18.568,18.568-18.568h1.912
			c10.238,0,18.568,8.33,18.568,18.568v21.123c0,10.238-8.33,18.568-18.568,18.568h-1.912
			C244.806,275.507,236.476,267.177,236.476,256.939z M327.303,296.419c-2.871-14.667-14.427-26.49-29.579-29.315l-3.393-0.633
			c0.778-3.05,1.194-6.243,1.194-9.531v-21.123c0-21.267-17.301-38.568-38.568-38.568h-1.912c-21.267,0-38.568,17.302-38.568,38.568
			v21.123c0,3.289,0.416,6.481,1.194,9.531l-3.394,0.633c-15.152,2.826-26.708,14.648-29.579,29.315
			C177.903,284.48,174,270.691,174,256c0-45.215,36.785-82,82-82c45.215,0,82,36.785,82,82
			C338,270.691,334.097,284.48,327.303,296.419z"/>
	</g>
</g>
<g>
	<g>
		<path d="M462,246h-36v-18.618c0-5.522-4.477-10-10-10h-23.038c-3.028-10.793-7.314-21.146-12.803-30.927l16.285-16.285
			c3.905-3.905,3.905-10.237,0-14.143l-40.472-40.472c-3.905-3.904-10.237-3.904-14.143,0l-16.285,16.285
			c-9.782-5.489-20.135-9.776-30.927-12.804V96c0-5.522-4.477-10-10-10h-57.235c-5.523,0-10,4.478-10,10v23.083
			c-10.774,3.036-21.107,7.326-30.869,12.816l-16.343-16.344c-3.905-3.904-10.237-3.904-14.143,0l-40.472,40.472
			c-3.905,3.905-3.905,10.237,0,14.143l16.392,16.392c-5.462,9.751-9.728,20.067-12.745,30.82H96c-5.523,0-10,4.478-10,10V246H50
			c-5.523,0-10,4.478-10,10c0,5.522,4.477,10,10,10h36v18.618c0,5.522,4.477,10,10,10h23.249
			c3.025,10.733,7.295,21.03,12.757,30.762l-16.45,16.45c-3.905,3.905-3.905,10.237,0,14.143l40.472,40.472
			c3.905,3.904,10.237,3.904,14.143,0l16.45-16.45c9.732,5.462,20.03,9.732,30.762,12.757V416c0,5.522,4.477,10,10,10h57.235
			c5.523,0,10-4.478,10-10v-23.202c10.751-3.017,21.068-7.283,30.821-12.745l16.392,16.392c3.905,3.904,10.237,3.904,14.143,0
			l40.472-40.472c3.903-3.906,3.903-10.238-0.002-14.143L380.1,325.486c5.489-9.762,9.779-20.095,12.816-30.868H416
			c5.523,0,10-4.478,10-10V266h36c5.523,0,10-4.478,10-10C472,250.478,467.523,246,462,246z M406,274.619h-20.876
			c-4.69-0.001-8.75,3.258-9.764,7.837c-3.09,13.954-8.566,27.142-16.274,39.194c-2.53,3.955-1.967,9.139,1.353,12.459
			l14.792,14.792l-26.33,26.329l-14.83-14.83c-3.315-3.315-8.49-3.883-12.444-1.363c-12.052,7.678-25.227,13.125-39.159,16.19
			c-4.585,1.009-7.851,5.072-7.851,9.767V406h-37.235v-21.042c0-4.689-3.259-8.75-7.838-9.764c-13.915-3.08-27.07-8.536-39.1-16.215
			c-3.955-2.524-9.133-1.96-12.452,1.357l-14.894,14.894l-26.33-26.329l14.894-14.894c3.318-3.318,3.882-8.497,1.358-12.452
			c-7.678-12.028-13.134-25.184-16.215-39.1c-1.014-4.579-5.074-7.838-9.764-7.838H106v-37.236h21.006
			c4.694,0,8.757-3.266,9.766-7.851c3.067-13.935,8.514-27.109,16.19-39.158c2.519-3.955,1.953-9.129-1.363-12.444l-14.831-14.83
			l26.33-26.329l14.792,14.792c3.321,3.319,8.503,3.883,12.459,1.353c12.052-7.709,25.239-13.184,39.194-16.273
			c4.579-1.014,7.838-5.073,7.838-9.764V106h37.235v20.841c0,4.694,3.266,8.758,7.851,9.767
			c13.971,3.074,27.178,8.541,39.252,16.248c3.956,2.525,9.135,1.961,12.451-1.357l14.729-14.729l26.33,26.329L360.5,177.828
			c-3.318,3.318-3.883,8.497-1.358,12.452c7.707,12.072,13.173,25.278,16.249,39.252c1.009,4.585,5.072,7.851,9.766,7.851H406
			V274.619z"/>
	</g>
</g>
<g>
	<g>
		<path d="M470,428c-19.713,0-36.288,13.655-40.787,32H379.5v-44c0-5.522-4.477-10-10-10s-10,4.478-10,10v54c0,5.522,4.477,10,10,10
			h59.713c4.499,18.345,21.075,32,40.787,32c23.159,0,42-18.841,42-42S493.159,428,470,428z M470,492c-12.131,0-22-9.869-22-22
			c0-12.131,9.869-22,22-22c12.131,0,22,9.869,22,22C492,482.131,482.131,492,470,492z"/>
	</g>
</g>
<g>
	<g>
		<path d="M142.5,32H82.787C78.288,13.655,61.713,0,42,0C18.841,0,0,18.841,0,42s18.841,42,42,42c19.713,0,36.288-13.655,40.787-32
			H132.5v44c0,5.522,4.477,10,10,10s10-4.478,10-10V42C152.5,36.478,148.023,32,142.5,32z M42,64c-12.131,0-22-9.869-22-22
			s9.869-22,22-22s22,9.869,22,22S54.131,64,42,64z"/>
	</g>
</g>
<g>
	<g>
		<path d="M142.5,406c-5.523,0-10,4.478-10,10v44H82.787C78.288,441.655,61.713,428,42,428c-23.159,0-42,18.841-42,42
			s18.841,42,42,42c19.713,0,36.288-13.655,40.787-32H142.5c5.523,0,10-4.478,10-10v-54C152.5,410.478,148.023,406,142.5,406z
			 M42,492c-12.131,0-22-9.869-22-22c0-12.131,9.869-22,22-22s22,9.869,22,22C64,482.131,54.131,492,42,492z"/>
	</g>
</g>
<g>
	<g>
		<path d="M470,0c-19.713,0-36.288,13.655-40.787,32H369.5c-5.523,0-10,4.478-10,10v54c0,5.522,4.477,10,10,10s10-4.478,10-10V52
			h49.713c4.499,18.345,21.075,32,40.787,32c23.159,0,42-18.841,42-42S493.159,0,470,0z M470,64c-12.131,0-22-9.869-22-22
			s9.869-22,22-22c12.131,0,22,9.869,22,22S482.131,64,470,64z"/>
	</g>
</g>
<g>
	<g>
		<path d="M509.07,248.93c-1.86-1.86-4.44-2.93-7.07-2.93s-5.21,1.069-7.07,2.93c-1.86,1.86-2.93,4.44-2.93,7.07
			s1.07,5.21,2.93,7.069c1.86,1.86,4.44,2.931,7.07,2.931s5.21-1.07,7.07-2.931c1.86-1.859,2.93-4.439,2.93-7.069
			S510.93,250.79,509.07,248.93z"/>
	</g>
</g>
<g>
	<g>
		<path d="M17.07,248.93C15.21,247.07,12.63,246,10,246s-5.21,1.069-7.07,2.93C1.07,250.79,0,253.37,0,256s1.07,5.21,2.93,7.069
			C4.79,264.93,7.37,266,10,266s5.21-1.07,7.07-2.931C18.93,261.21,20,258.63,20,256S18.93,250.79,17.07,248.93z"/>
	</g>
</g>
<g>
	<g>
		<path d="M208,32c-5.523,0-10,4.478-10,10s4.477,10,10,10h0.099c5.523,0,9.951-4.478,9.951-10S213.523,32,208,32z"/>
	</g>
</g>
<g>
	<g>
		<path d="M255.952,32c-5.523,0-10,4.478-10,10s4.476,10,9.999,10h0.099c5.523,0,9.951-4.478,9.951-10S261.475,32,255.952,32z"/>
	</g>
</g>
<g>
	<g>
		<path d="M303.902,32c-5.523,0-10,4.478-10,10s4.476,10,9.999,10H304c5.523,0,9.951-4.478,9.951-10S309.425,32,303.902,32z"/>
	</g>
</g>
<g>
	<g>
		<path d="M208,460c-5.523,0-10,4.478-10,10c0,5.522,4.477,10,10,10h0.099c5.523,0,9.951-4.478,9.951-10
			C218.05,464.478,213.523,460,208,460z"/>
	</g>
</g>
<g>
	<g>
		<path d="M255.951,460c-5.523,0-10,4.478-10,10c0,5.522,4.477,10,10,10h0.099c5.523,0,9.951-4.478,9.951-10
			C266.001,464.478,261.474,460,255.951,460z"/>
	</g>
</g>
<g>
	<g>
		<path d="M303.901,460c-5.523,0-10,4.478-10,10c0,5.522,4.477,10,10,10H304c5.523,0,9.951-4.478,9.951-10
			C313.951,464.478,309.424,460,303.901,460z"/>
	</g>
</g>
<g>
</g>
<g>
</g>
<g>
</g>
<g>
</g>
<g>
</g>
<g>
</g>
<g>
</g>
<g>
</g>
<g>
</g>
<g>
</g>
<g>
</g>
<g>
</g>
<g>
</g>
<g>
</g>
<g>
</g>
</symbol>

<symbol id="olymp-my-photos-icon" viewBox="0 0 512 512">
<g>
	<g>
		<path d="M374.007,107.991H154.905l150.098-86.659c4.772-2.758,10.902-1.115,13.66,3.661l33.868,58.661
			c2.763,4.783,8.879,6.422,13.66,3.66c4.783-2.761,6.422-8.877,3.66-13.66l-33.868-58.661c-8.271-14.325-26.656-19.25-40.981-10.98
			L115.119,107.869c-0.067,0.039-0.126,0.084-0.192,0.124H30.001C13.458,107.993,0,121.451,0,137.993v344.006
			C0,498.542,13.458,512,30.001,512h344.006c16.542,0,30.001-13.458,30.001-30.001V137.993
			C404.007,121.45,390.549,107.991,374.007,107.991z M384.007,481.998c0,5.514-4.486,10-10,10H30.001c-5.514,0-10-4.486-10-10
			V137.992c0-5.514,4.486-10,10-10h344.006c5.514,0,10,4.486,10,10V481.998z"/>
	</g>
</g>
<g>
	<g>
		<path d="M447.307,208.504c-1.861-1.86-4.44-2.93-7.07-2.93s-5.21,1.07-7.069,2.93c-1.86,1.86-2.931,4.44-2.931,7.07
			c0,2.63,1.07,5.21,2.931,7.07c1.86,1.859,4.44,2.93,7.069,2.93c2.63,0,5.21-1.07,7.07-2.93c1.86-1.86,2.93-4.44,2.93-7.07
			C450.237,212.944,449.168,210.364,447.307,208.504z"/>
	</g>
</g>
<g>
	<g>
		<path d="M507.987,312.911l-41.376-71.665c-2.762-4.783-8.876-6.421-13.66-3.66c-4.783,2.761-6.422,8.877-3.66,13.66l41.376,71.664
			c2.757,4.776,1.115,10.904-3.66,13.661l-64.312,37.13c-4.783,2.761-6.422,8.877-3.66,13.66c1.853,3.208,5.213,5.001,8.67,5.001
			c1.696,0,3.416-0.432,4.99-1.341l64.312-37.13C511.331,345.621,516.257,327.238,507.987,312.911z"/>
	</g>
</g>
<g>
	<g>
		<path d="M263.074,158.922c-1.859-1.86-4.439-2.93-7.069-2.93c-2.63,0-5.21,1.07-7.07,2.93c-1.86,1.86-2.93,4.44-2.93,7.07
			s1.069,5.21,2.93,7.07s4.44,2.93,7.07,2.93c2.63,0,5.21-1.07,7.069-2.93c1.86-1.86,2.931-4.44,2.931-7.07
			S264.935,160.782,263.074,158.922z"/>
	</g>
</g>
<g>
	<g>
		<path d="M346.006,155.992h-39.001c-5.522,0-10,4.477-10,10c0,5.523,4.478,10,10,10h29v142.573l-79.391-79.39
			c-1.876-1.875-4.419-2.929-7.071-2.929s-5.195,1.054-7.071,2.929l-52.978,52.978c-3.905,3.905-3.905,10.237,0,14.142
			c3.906,3.905,10.236,3.905,14.143,0l45.906-45.907l86.392,86.392c0.023,0.023,0.048,0.042,0.071,0.064v49.152H82.145
			l72.597-72.597l53.93,53.93c3.906,3.905,10.236,3.905,14.143,0c3.905-3.905,3.905-10.237,0-14.143l-61.001-61.001
			c-1.876-1.875-4.419-2.929-7.071-2.929s-5.195,1.054-7.071,2.929l-79.67,79.67V175.992h134.002c5.522,0,10-4.477,10-10
			c0-5.523-4.478-10-10-10H58.001c-5.522,0-10,4.477-10,10v240.004c0,5.523,4.478,10,10,10h288.005c5.522,0,10-4.477,10-10V165.992
			C356.006,160.47,351.528,155.992,346.006,155.992z"/>
	</g>
</g>
<g>
	<g>
		<path d="M145.67,198.992c-17.645,0-32.001,14.355-32.001,32.001s14.355,32.001,32.001,32.001
			c17.645,0,32.001-14.355,32.001-32.001S163.315,198.992,145.67,198.992z M145.67,242.993c-6.617,0-12-5.383-12-12s5.383-12,12-12
			s12,5.384,12,12C157.67,237.61,152.287,242.993,145.67,242.993z"/>
	</g>
</g>
<g>
</g>
<g>
</g>
<g>
</g>
<g>
</g>
<g>
</g>
<g>
</g>
<g>
</g>
<g>
</g>
<g>
</g>
<g>
</g>
<g>
</g>
<g>
</g>
<g>
</g>
<g>
</g>
<g>
</g>

</symbol>


</defs>
</svg>
