<svg xmlns="http://www.w3.org/2000/svg" style="display: none;">
  
    <symbol id="olymp-weather-cloudy-icon" viewBox="0 0 512 512">
      <path d="m248 384l31 0 0 31-31 0z m123-110c0-46-40-84-90-85-24-28-60-45-102-45-69 0-125 49-129 111-30 14-50 42-50 75 0 47 41 85 93 85l124 0 0-31-124 0c-34 0-62-24-62-54 0-19 12-38 32-47l17-8 1-18c3-46 46-82 98-82 31 0 60 12 79 34l8 11 14 0c34 1 60 24 60 54l0 21 20 8c18 6 29 22 29 38 0 36-27 43-49 43l-30 0 0 31 30 0c44 0 80-24 80-74 0-30-20-56-49-67z m91-66c-4-62-60-111-129-111-42 0-78 18-102 45-18 1-36 6-50 15 15 1 36 5 57 16l8 0 8-10c19-22 48-35 79-35 52 0 95 36 98 83l1 18 17 7c20 10 32 28 32 48 0 29-28 53-62 53l-14 0c1 8 1 19-5 32l19 0c52 0 93-38 93-85 0-33-20-61-50-76z"/>
    </symbol>
  
    <symbol id="olymp-weather-partly-sunny-icon" viewBox="0 0 512 512">
      <path d="m256 444l32 0 0 32-32 0z m126-114c0-47-41-86-92-87-25-29-63-47-105-47-71 0-129 51-134 115-30 15-51 44-51 77 0 49 43 88 96 88l128 0 0-32-128 0c-35 0-64-25-64-56 0-20 13-38 33-48l17-8 1-19c3-48 48-85 102-85 32 0 61 13 81 36l9 10 14 1c34 1 61 25 61 55l0 22 21 8c18 7 30 23 30 40 0 36-27 44-51 44l-30 0 0 32 30 0c46 0 83-25 83-76 0-31-21-58-51-70z m-86-198c-53 0-98 34-114 82l33 5c13-32 44-55 81-55 49 0 88 39 88 88 0 22-8 42-21 57l5 7c0 0 6 13 11 22 23-21 37-52 37-86 0-66-54-120-120-120z m0-96c-9 0-16 7-16 16l0 48c0 9 7 16 16 16 9 0 16-7 16-16l0-48c0-9-7-16-16-16z m200 200l-48 0c-9 0-16 7-16 16 0 9 7 16 16 16l48 0c9 0 16-7 16-16 0-9-7-16-16-16z m-47-137c-7-6-17-6-23 0l-34 34c-6 6-6 17 0 23 6 6 17 6 23 0l34-34c6-6 6-16 0-23z m-283 0c-6-6-16-6-23 0-6 7-6 17 0 23l34 34c6 6 17 6 23 0 6-6 6-17 0-23z"/>
    </symbol>
  
    <symbol id="olymp-weather-rain-drops-icon" viewBox="0 0 512 512">
      <path d="m62 171c21 45 38 89 38 103 0 21-17 38-38 38-20 0-37-17-37-38 0-14 17-58 37-103m0-59c0 0-62 126-62 162 0 35 28 63 62 63 35 0 63-28 63-63 0-36-63-162-63-162z m388-40c20 47 37 91 37 104 0 20-17 36-37 36-21 0-38-16-38-36 0-13 17-57 38-104m0-60c0 0-63 130-63 164 0 34 28 61 63 61 34 0 62-27 62-61 0-34-62-164-62-164z m-175 242c31 62 62 135 62 158 0 35-28 63-62 63-35 0-63-28-63-63 0-23 32-96 63-158m0-54c0 0-87 164-87 212 0 48 39 88 87 88 48 0 87-40 87-88 0-48-87-212-87-212z"/>
    </symbol>
  
    <symbol id="olymp-weather-rain-icon" viewBox="0 0 512 512">
      <path d="m199 43l38 0 0 38-38 0z m-57 294l-29 0c-41 0-75-30-75-66 0-24 15-46 39-58l20-9 2-23c2-38 27-70 62-87l0-41c-56 20-96 68-100 126-36 17-61 52-61 92 0 57 51 104 113 104l29 0z m311-135c0-56-49-102-110-104-17-20-41-36-68-46l0 41c15 7 29 17 40 30l11 13 16 0c41 1 73 30 73 66l0 26 25 9c21 8 36 27 36 48 0 43-33 52-61 52l-36 0 0 38 36 0c55 0 97-29 97-90 0-37-23-70-59-83z m-175 80c-5 9-2 21 7 26 9 5 21 2 26-7 5-9 12-58 12-58 0 0-40 30-45 39z m-97 47c-5 9-2 21 7 26 9 5 21 2 26-7 5-9 12-59 12-59 0 0-39 31-45 40z m49 82c-5 9-2 20 7 25 9 6 21 3 26-6 5-10 12-59 12-59 0 0-39 31-45 40z m86-29c-6 9-3 21 7 26 9 5 20 2 25-7 6-9 12-59 12-59 0 0-39 31-44 40z m-182 59c-6 9-3 21 7 26 9 5 20 2 25-7 6-9 12-59 12-59 0 0-39 31-44 40z"/>
    </symbol>
  
    <symbol id="olymp-weather-snow-icon" viewBox="0 0 512 512">
      <path d="m199 28l38 0 0 38-38 0z m-57 294l-29 0c-41 0-75-29-75-65 0-24 15-46 39-58l20-10 2-22c2-38 27-70 62-87l0-42c-56 21-96 69-100 127-36 17-61 52-61 92 0 57 51 103 113 103l29 0z m311-135c0-56-49-101-110-103-17-21-41-37-68-46l0 41c15 7 29 17 40 30l11 12 16 1c41 1 73 30 73 65l0 27 25 9c21 8 36 27 36 47 0 43-33 52-61 52l-36 0 0 38 36 0c55 0 97-28 97-89 0-38-23-70-59-84z m-182 118l-11-11 24 0c6 0 10-4 10-10 0-5-4-9-10-9l-24 0 11-11c3-3 3-9 0-13-4-4-10-4-14 0l-10 11 0-25c0-5-5-9-10-9-5 0-9 4-9 9l0 25-11-11c-4-4-10-4-13 0-4 4-4 10 0 13l10 11-24 0c-6 0-10 4-10 9 0 6 4 10 10 10l24 0-10 11c-4 3-4 9 0 13 3 4 9 4 13 0l11-11 0 25c0 5 4 9 9 9 5 0 10-4 10-9l0-25 10 11c4 4 10 4 14 0 3-4 3-10 0-13z m81 76l-20 0 9-9c3-3 3-8 0-11-3-3-8-3-11 0l-9 9 0-21c0-4-4-8-8-8-4 0-8 4-8 8l0 21-9-9c-3-3-8-3-11 0-3 3-3 8 0 11l9 9-21 0c-4 0-8 3-8 8 0 4 4 8 8 8l21 0-9 9c-3 3-3 8 0 11 3 3 8 3 11 0l9-9 0 20c0 5 4 8 8 8 4 0 8-3 8-8l0-20 9 9c3 3 8 3 11 0 3-3 3-8 0-11l-9-9 20 0c5 0 8-4 8-8 0-5-3-8-8-8z m-132 47l-21 0 9-9c3-3 3-8 0-11-3-3-8-3-11 0l-9 9 0-20c0-5-3-8-8-8-4 0-8 3-8 8l0 20-9-9c-3-3-8-3-11 0-3 3-3 8 0 11l9 9-20 0c-5 0-8 4-8 8 0 5 3 8 8 8l20 0-9 9c-3 3-3 8 0 11 3 3 8 3 11 0l9-9 0 21c0 4 4 8 8 8 5 0 8-4 8-8l0-21 9 9c3 3 8 3 11 0 3-3 3-8 0-11l-9-9 21 0c4 0 8-3 8-8 0-4-4-8-8-8z"/>
    </symbol>
  
    <symbol id="olymp-weather-storm-icon" viewBox="0 0 512 512">
      <path d="m199 28l38 0 0 38-38 0z m-57 294l-29 0c-41 0-75-29-75-65 0-24 15-46 39-58l20-10 2-22c2-38 27-70 62-87l0-42c-56 21-96 69-100 127-36 17-61 52-61 92 0 57 51 103 113 103l29 0z m311-135c0-56-49-101-110-103-17-21-41-37-68-46l0 41c15 7 29 17 40 30l11 12 16 1c41 1 73 30 73 65l0 27 25 9c21 8 36 27 36 47 0 43-33 52-61 52l-36 0 0 38 36 0c55 0 97-28 97-89 0-38-23-70-59-84z m-148 96l-31 0 28-74-92 96 31 0-27 74z m48 87l-25 0 22-57-73 75 25 0-22 58z m-155-19l-73 75 25 0-22 58 73-76-25 0z"/>
    </symbol>
  
    <symbol id="olymp-weather-strong-winds-icon" viewBox="0 0 512 512">
      <path d="m451 308c-33 0-416 0-416 0l0 35 416 0c15 0 26 11 26 26 0 14-11 26-26 26-10 0-18-6-23-14 0 0 0 0 0 0l-31 16c11 19 31 33 54 33 34 0 61-28 61-61 0-34-27-61-61-61z m0-226c-23 0-43 14-54 33l31 16c0 0 0 0 0 0 5-8 13-14 23-14 15 0 26 12 26 26 0 15-11 26-26 26l-382 0 0 35c95 0 355 0 382 0 34 0 61-27 61-61 0-33-27-61-61-61z m-451 191l69 0 0-34-69 0z m104 0l35 0 0-34-35 0z m70-34l0 34 295 0 0-34z"/>
    </symbol>
  
    <symbol id="olymp-weather-sunny-icon" viewBox="0 0 512 512">
      <path d="m256 114c-58 0-108 35-130 85l43 0c18-28 50-47 87-47 58 0 104 46 104 104 0 58-46 104-104 104-37 0-69-19-87-47l-43 0c22 50 72 85 130 85 79 0 142-63 142-142 0-79-63-142-142-142z m-104 161l0-38-38 0 0 38z m104-180c10 0 19-9 19-19l0-57c0-11-9-19-19-19-10 0-19 8-19 19l0 57c0 10 9 19 19 19z m0 322c-10 0-19 9-19 19l0 57c0 11 9 19 19 19 10 0 19-8 19-19l0-57c0-10-9-19-19-19z m237-180l-57 0c-10 0-19 9-19 19 0 10 9 19 19 19l57 0c11 0 19-9 19-19 0-10-8-19-19-19z m-398 19c0-10-9-19-19-19l-57 0c-11 0-19 9-19 19 0 10 8 19 19 19l57 0c10 0 19-9 19-19z m302-114l40-40c7-8 7-20 0-27-7-7-19-7-27 0l-40 40c-7 8-7 20 0 27 7 7 19 7 27 0z m-282 228l-40 40c-7 8-7 20 0 27 7 7 19 7 27 0l40-40c7-8 7-20 0-27-7-7-19-7-27 0z m282 0c-8-7-20-7-27 0-7 7-7 19 0 27l40 40c8 7 20 7 27 0 7-7 7-19 0-27z m-282-228c8 7 20 7 27 0 7-7 7-19 0-27l-40-40c-8-7-20-7-27 0-7 7-7 19 0 27z"/>
    </symbol>
  
    <symbol id="olymp-weather-thermometer-icon" viewBox="0 0 512 512">
      <path d="m146 402c0 48 31 89 73 104l0-27c-28-13-48-43-48-77 0-38 25-71 61-81l0-26c-49 11-86 55-86 107z m134-107l0 26c36 10 61 43 61 81 0 34-20 64-48 77l0 27c42-15 73-56 73-104 0-52-37-96-86-107z m0-222l-24 0 0 25 24 0z m0 49l-24 0 0 24 24 0z m0 49l-24 0 0 24 24 0z m0 48l-24 0 0 25 24 0z m-36 293l24 0 0-24-24 0z m-12-197l0-266c0-14 11-25 24-25 14 0 25 11 25 25l0 266 24 0c0-114 0-266 0-266 0-27-22-49-49-49-27 0-49 22-49 49 0 0 0 152 0 266z"/>
    </symbol>
  
    <symbol id="olymp-weather-wind-icon-header" viewBox="0 0 512 512">
      <path d="m436 289c-42 0-403 0-403 0l0 21 403 0c30 0 54 25 54 55 0 30-24 54-54 54-21 0-39-11-49-29 0-1 0-1 0-1l-19 11c13 24 38 41 68 41 42 0 76-34 76-76 0-42-34-76-76-76z m0-218c-30 0-55 17-68 41l19 11c0 0 0 0 0-1 10-18 28-29 49-29 30 0 54 24 54 54 0 30-24 55-54 55l-360 0 0 21c98 0 327 0 360 0 42 0 76-34 76-76 0-42-34-76-76-76z m-283 196l21 0 0-22-21 0z m43-22l0 22 207 0 0-22z m-196 22l131 0 0-22-131 0z"/>
    </symbol>

      <symbol id="olymp-friends-header" viewBox="0 0 512 512">


<g>
	<g>
		<path d="M441.166,39.951h-6.859c-5.523,0-10,4.477-10,10c0,5.523,4.477,10,10,10h6.859c5.523,0,10-4.477,10-10
			C451.166,44.428,446.689,39.951,441.166,39.951z"/>
	</g>
</g>
<g>
	<g>
		<path d="M489.687,39.951h-6.859c-5.523,0-10,4.477-10,10c0,5.523,4.477,10,10,10h6.859c5.523,0,10-4.477,10-10
			C499.687,44.428,495.21,39.951,489.687,39.951z"/>
	</g>
</g>
<g>
	<g>
		<path d="M461.997,60.782c-5.523,0-10,4.477-10,10v6.859c0,5.523,4.477,10,10,10c5.523,0,10-4.477,10-10v-6.859
			C471.997,65.259,467.52,60.782,461.997,60.782z"/>
	</g>
</g>
<g>
	<g>
		<path d="M461.997,12.262c-5.523,0-10,4.477-10,10v6.859c0,5.523,4.477,10,10,10c5.523,0,10-4.477,10-10v-6.859
			C471.997,16.739,467.52,12.262,461.997,12.262z"/>
	</g>
</g>
<g>
	<g>
		<path d="M16.859,163.234H10c-5.523,0-10,4.477-10,10s4.477,10,10,10h6.859c5.523,0,10-4.477,10-10S22.382,163.234,16.859,163.234z
			"/>
	</g>
</g>
<g>
	<g>
		<path d="M65.38,163.234h-6.859c-5.523,0-10,4.477-10,10s4.477,10,10,10h6.859c5.523,0,10-4.477,10-10
			S70.903,163.234,65.38,163.234z"/>
	</g>
</g>
<g>
	<g>
		<path d="M37.69,184.064c-5.523,0-10,4.477-10,10v6.859c0,5.523,4.477,10,10,10c5.523,0,10-4.477,10-10v-6.859
			C47.69,188.541,43.213,184.064,37.69,184.064z"/>
	</g>
</g>
<g>
	<g>
		<path d="M37.69,135.543c-5.523,0-10,4.477-10,10v6.859c0,5.523,4.477,10,10,10c5.523,0,10-4.477,10-10v-6.859
			C47.69,140.02,43.213,135.543,37.69,135.543z"/>
	</g>
</g>
<g>
	<g>
		<path d="M501.454,365.231c-12.639-12.725-32.384-14.361-46.948-3.893l-66.061,47.493c-1.29-6.828-4.471-13.236-9.33-18.096
			c-0.577-0.577-1.179-1.121-1.793-1.645c0.016-0.228,0.035-0.455,0.035-0.686V264.825h22.137c5.523,0,10-4.477,10-10V141.213
			c0-23.37-19.021-42.383-42.4-42.383h-9.182c-1.429,0-2.727-0.556-3.7-1.457c11.406-8.303,18.84-21.745,18.84-36.897V45.675
			c0-25.158-20.476-45.626-45.645-45.626c-25.168,0-45.645,20.468-45.645,45.626v14.802c0,15.15,7.431,28.59,18.834,36.893
			c-0.974,0.903-2.273,1.461-3.704,1.461h-15.882c-5.523,0-10,4.477-10,10s4.477,10,10,10h15.882c2.181,0,4.299-0.276,6.321-0.795
			l14.197,20.839v39.016c0,5.523,4.477,10,10,10c5.523,0,10-4.477,10-10v-39.016l14.19-20.837c2.019,0.517,4.134,0.793,6.312,0.793
			h9.182c12.352,0,22.4,10.041,22.4,22.383v103.612h-12.137v-84.257c0-5.523-4.477-10-10-10c-5.523,0-10,4.477-10,10v69.405h-59.9
			v-69.405c0-5.523-4.477-10-10-10c-5.523,0-10,4.477-10,10V379.61c-1.716-0.917-3.305-2.091-4.716-3.502l-43.31-43.514v-66.293
			h21.34c5.523,0,10-4.477,10-10V141.23c0-23.38-19.021-42.4-42.4-42.4h-8.393c-1.426,0-2.722-0.555-3.693-1.456
			c11.407-8.303,18.841-21.745,18.841-36.898V45.675c0-25.158-20.476-45.626-45.645-45.626c-25.168,0-45.645,20.468-45.645,45.626
			v14.802c0,15.15,7.432,28.591,18.836,36.894c-0.972,0.903-2.27,1.46-3.698,1.46h-8.383c-23.38,0-42.4,19.021-42.4,42.4v115.071
			c0,5.523,4.477,10,10,10h21.339v38.783H99.999v-19.135c0-5.523-4.477-10-10-10H10c-5.523,0-10,4.477-10,10v215.999
			c0,5.523,4.477,10,10,10h80c5.523,0,10-4.477,10-10v-14.432l17.894,7.069c29.164,11.522,59.851,17.364,91.209,17.364h137.959
			c22.058,0,43.727-7.544,61.015-21.242l9.464-7.499c4.329-3.43,5.058-9.719,1.628-14.048c-3.429-4.329-9.718-5.059-14.048-1.628
			l-9.464,7.499c-13.77,10.91-31.028,16.918-48.595,16.918H209.103c-28.833,0-57.047-5.371-83.86-15.964l-25.243-9.973V325.085
			h77.116c10.685,0,20.729,4.161,28.268,11.699l53.2,53.45c7.555,7.555,17.6,11.715,28.284,11.715h71.036
			c2.671,0,5.183,1.04,7.071,2.929c4.585,4.585,4.955,12.138,2.976,16.917c-0.661,1.596-1.452,2.693-2.262,3.448
			c-0.086,0.073-0.174,0.143-0.257,0.218c-1.706,1.437-3.445,1.446-4.188,1.446H250.749c-6.91,0-13.624-1.992-19.417-5.759
			l-32.116-20.889l-0.117-0.076c-4.634-3.005-10.826-1.685-13.832,2.949c-3.005,4.634-1.685,10.826,2.949,13.832l32.211,20.95
			c9.046,5.884,19.531,8.994,30.321,8.994H361.24c6.525,0,12.427-2.212,17.122-6.195l87.817-63.135
			c6.54-4.703,15.408-3.967,21.083,1.748c3.315,3.337,4.987,7.761,4.708,12.457c-0.279,4.695-2.463,8.89-6.15,11.811l-14.536,11.517
			c-4.329,3.43-5.057,9.719-1.627,14.048c3.43,4.328,9.72,5.056,14.048,1.627l14.535-11.517c8.09-6.41,13.082-15.996,13.694-26.3
			C512.549,382.665,508.728,372.555,501.454,365.231z M327.407,20.049c10.547,0,19.628,6.396,23.562,15.511l-6.699-3.933
			c-4.21-2.473-9.59-1.543-12.727,2.198c-5.555,6.626-13.703,10.426-22.354,10.426H301.8
			C302.543,30.781,313.745,20.049,327.407,20.049z M327.409,118.028l-8.32-12.212c0.083-0.147,0.167-0.293,0.246-0.442
			c2.622,0.47,5.317,0.729,8.072,0.729c2.752,0,5.444-0.258,8.063-0.727c0.081,0.151,0.166,0.299,0.25,0.448L327.409,118.028z
			 M353.052,60.476c0,14.132-11.505,25.627-25.645,25.627c-12.857,0-23.532-9.505-25.364-21.852h7.147
			c11.676,0,22.809-4.108,31.591-11.481l12.271,7.205V60.476z M80,491.948H20V295.949h60V491.948z M179.481,86.103
			c-12.857,0-23.532-9.505-25.364-21.852h7.147c11.676,0,22.809-4.108,31.59-11.481l12.271,7.206v0.501
			C205.126,74.608,193.622,86.103,179.481,86.103z M187.795,105.825l-8.311,12.204l-8.32-12.212
			c0.083-0.147,0.167-0.294,0.247-0.443c2.622,0.47,5.316,0.729,8.071,0.729c2.752,0,5.443-0.258,8.063-0.727
			C187.626,105.527,187.711,105.676,187.795,105.825z M179.481,20.049c10.548,0,19.629,6.396,23.563,15.511l-6.699-3.934
			c-4.21-2.471-9.59-1.543-12.727,2.199c-5.555,6.626-13.703,10.426-22.354,10.426h-7.389
			C154.618,30.781,165.819,20.049,179.481,20.049z M169.481,305.084h-19.95v-48.783v-6.328h19.95V305.084z M209.431,256.302v58.225
			c-6.104-3.919-12.843-6.68-19.95-8.162v-56.391h19.95V256.302z M219.431,150.569c-5.523,0-10,4.477-10,10v2.117v67.288h-59.9
			v-67.288v-2.117c0-5.523-4.477-10-10-10c-5.523,0-10,4.477-10,10v2.117v75.507v8.109h-11.339V141.23
			c0-12.352,10.049-22.4,22.4-22.4h8.383c2.179,0,4.294-0.276,6.314-0.794l14.192,20.832v39.021c0,5.523,4.477,10,10,10
			s10-4.477,10-10v-39.01l14.193-20.841c2.017,0.516,4.129,0.792,6.304,0.792h8.393c12.352,0,22.4,10.049,22.4,22.4v105.071h-11.34
			v-8.109v-75.507v-2.117C229.431,155.046,224.954,150.569,219.431,150.569z M317.407,381.949h-19.95V249.974h19.95V381.949z
			 M357.357,381.949h-19.95V249.974h19.95V381.949z"/>
	</g>
</g>
<g>
	<g>
		<path d="M454.486,441.18c-3.429-4.329-9.719-5.058-14.048-1.629l-0.188,0.149c-4.329,3.43-5.059,9.719-1.629,14.048
			c1.974,2.492,4.895,3.791,7.845,3.791c2.175,0,4.366-0.707,6.203-2.162l0.188-0.149
			C457.186,451.797,457.916,445.509,454.486,441.18z"/>
	</g>
</g>
<g>
	<g>
		<path d="M57.07,453.009c-1.86-1.86-4.44-2.92-7.07-2.92c-2.63,0-5.21,1.06-7.07,2.92c-1.86,1.87-2.93,4.44-2.93,7.08
			c0,2.63,1.07,5.2,2.93,7.07c1.86,1.86,4.44,2.92,7.07,2.92c2.63,0,5.21-1.06,7.07-2.92s2.93-4.44,2.93-7.07
			C60,457.448,58.93,454.868,57.07,453.009z"/>
	</g>
</g>
<g>
	<g>
		<path d="M50,329.723c-5.523,0-10,4.477-10,10v80.972c0,5.523,4.477,10,10,10s10-4.477,10-10v-80.972
			C60,334.2,55.523,329.723,50,329.723z"/>
	</g>
</g>
<g>
</g>
<g>
</g>
<g>
</g>
<g>
</g>
<g>
</g>
<g>
</g>
<g>
</g>
<g>
</g>
<g>
</g>
<g>
</g>
<g>
</g>
<g>
</g>
<g>
</g>
<g>
</g>
<g>
</g>
    </symbol>
</svg>
